<?xml version="1.0" encoding="UTF-8"?>
<svg width="50px" height="87px" viewBox="0 0 50 87" version="1.1" xmlns="http://www.w3.org/2000/svg" xmlns:xlink="http://www.w3.org/1999/xlink">
    <!-- Generator: Sketch 49.3 (51167) - http://www.bohemiancoding.com/sketch -->
    <title>Page 1</title>
    <desc>Created with Sketch.</desc>
    <defs>
        <path d="M50,3.98938943 L50,83.0115945 C49.2131064,85.3268679 47.0222658,87 44.4613068,87 L5.84965048,87 C2.63283819,87 0,84.3552002 0,81.1212861 L0,5.87625083 C0,2.64917257 2.62173774,0.0111198108 5.82929296,0 L44.4816643,1.1447633e-13 C47.0338707,0.00884788292 49.2151923,1.68085153 50,3.98938943 Z M18.9792023,4.23565638 C18.5882294,4.23565638 18.2714975,4.55385083 18.2714975,4.94905638 C18.2714975,5.34176472 18.5882294,5.65995916 18.9792023,5.65995916 L31.3317525,5.65995916 C31.7227255,5.65995916 32.0394573,5.34176472 32.0394573,4.94905638 C32.0394573,4.55385083 31.7227255,4.23565638 31.3317525,4.23565638 L18.9792023,4.23565638 Z M25.1554815,84.0618861 C26.7713154,84.0618861 28.0803092,82.7469431 28.0803092,81.1212861 C28.0803092,79.4956283 26.7713154,78.1831753 25.1554815,78.1831753 C23.5396476,78.1831753 22.2306537,79.4956283 22.2306537,81.1212861 C22.2306537,82.7469431 23.5396476,84.0618861 25.1554815,84.0618861 Z M46.2404566,76.1249969 L46.2404566,9.31894555 L4.07050638,9.31894555 L4.07050638,76.1249969 L46.2404566,76.1249969 Z" id="path-1"></path>
    </defs>
    <g id="For-Sebastian" stroke="none" stroke-width="1" fill="none" fill-rule="evenodd" opacity="0.800000012">
        <g id="Desktop---Composite" transform="translate(-439.000000, -1463.000000)">
            <g id="Group-25" transform="translate(140.000000, 1226.000000)">
                <g id="Group-10" transform="translate(224.000000, 194.000000)">
                    <g id="Page-1" transform="translate(75.000000, 43.000000)">
                        <mask id="mask-2" fill="white">
                            <use xlink:href="#path-1"></use>
                        </mask>
                        <g id="Clip-2"></g>
                        <polygon id="Fill-1" fill="#3F4D5A" mask="url(#mask-2)" points="-12 99 63 99 63 -13 -12 -13"></polygon>
                    </g>
                </g>
            </g>
        </g>
    </g>
</svg>