<?xml version="1.0" encoding="UTF-8"?>
<svg width="51px" height="87px" viewBox="0 0 51 87" version="1.1" xmlns="http://www.w3.org/2000/svg" xmlns:xlink="http://www.w3.org/1999/xlink">
    <!-- Generator: Sketch 49.3 (51167) - http://www.bohemiancoding.com/sketch -->
    <title>Page 1</title>
    <desc>Created with Sketch.</desc>
    <defs>
        <path d="M51,60.3763686 C49.892996,65.2286537 45.5101239,68.8608744 40.2846513,68.8608744 L10.9851634,68.8608744 C4.92615873,68.8608744 0,63.9774567 0,57.9710114 L0,28.9257028 C0,22.9192575 4.92615873,18.0358397 10.9851634,18.0358397 L40.2674896,18.0358397 C45.5161266,18.0358397 49.8938604,21.6669689 51,26.5384011 L51,60.3763686 Z M37.6191244,0 C38.9400304,0.346134921 39.9949257,1.4086803 40.2846513,2.79000691 L43.3055736,14.7688777 L8.05006532,14.7688777 L10.9851634,2.79000691 C11.2610946,1.4086803 12.3132833,0.346134921 13.6336583,2.17623215e-14 L37.6191244,2.17623215e-14 Z M7.96424118,72.1108227 L43.1854182,72.1108227 L40.2503201,84.0896729 C39.9070389,85.8082293 38.3622505,87.0333391 36.5943208,86.9993083 L14.624001,86.9993083 C12.8560713,87.0333391 11.3284523,85.8082293 10.9680017,84.0896729 L7.96424118,72.1108227 Z M37.6931957,22.5066328 L13.5624777,22.5066328 C8.56942935,22.5066328 4.50992431,26.5309194 4.50992431,31.4806539 L4.50992431,55.4160602 C4.50992431,60.3657947 8.56942935,64.3900736 13.5624777,64.3900736 L37.7073447,64.3900736 C42.7003931,64.3900736 46.7598897,60.3657947 46.7598897,55.4160602 L46.7598897,31.4806539 C46.7457483,26.5168996 42.7003931,22.5066328 37.6931957,22.5066328 Z" id="path-1"></path>
    </defs>
    <g id="For-Sebastian" stroke="none" stroke-width="1" fill="none" fill-rule="evenodd" opacity="0.800000012">
        <g id="Desktop---Composite" transform="translate(-327.000000, -1272.000000)">
            <g id="Group-25" transform="translate(140.000000, 1226.000000)">
                <g id="Group-23" transform="translate(112.000000, 0.000000)">
                    <g id="Page-1" transform="translate(75.000000, 46.000000)">
                        <mask id="mask-2" fill="white">
                            <use xlink:href="#path-1"></use>
                        </mask>
                        <g id="Clip-2"></g>
                        <polygon id="Fill-1" fill="#3F4D5A" mask="url(#mask-2)" points="-1 88 51 88 51 -1 -1 -1"></polygon>
                    </g>
                </g>
            </g>
        </g>
    </g>
</svg>