<?xml version="1.0" encoding="UTF-8"?>
<svg width="73px" height="24px" viewBox="0 0 73 24" version="1.1" xmlns="http://www.w3.org/2000/svg" xmlns:xlink="http://www.w3.org/1999/xlink">
    <!-- Generator: Sketch 49.3 (51167) - http://www.bohemiancoding.com/sketch -->
    <title>Group 53</title>
    <desc>Created with Sketch.</desc>
    <defs></defs>
    <g id="For-Sebastian" stroke="none" stroke-width="1" fill="none" fill-rule="evenodd">
        <g id="Desktop---Composite" transform="translate(-258.000000, -948.000000)" fill="#FFFFFF">
            <g id="Group-53" transform="translate(258.000000, 948.000000)">
                <g id="Group-3">
                    <path d="M30.2726403,6.06021477 L34.906855,6.06021477 L32.4595355,2.03105847 L27.9655492,9.31309073 L25.9166565,9.31536388 L31.3877899,0.56942378 C31.6192781,0.213675989 32.0199306,0 32.4561968,0 C32.8868983,0 33.2819862,0.207993117 33.5145873,0.553511739 L39.0035275,9.31536388 L36.9546348,9.31309073 L35.9930686,7.68551617 L31.2976431,7.68551617 L30.2726403,6.06021477 Z M51.5339366,7.68778932 L51.5339366,0.090925953 L49.7966625,0.090925953 L49.7966625,8.42997241 C49.7966625,8.66069702 49.8879223,8.88119246 50.0492962,9.04599575 C50.2195735,9.21761848 50.4443842,9.31309073 50.6858886,9.31309073 L58.6054544,9.31309073 L59.6260055,7.68778932 L51.5339366,7.68778932 Z M22.8038087,6.32730975 C24.4887753,6.32730975 25.8565586,4.9304598 25.8565586,3.20968614 C25.8565586,1.48777591 24.4887753,0.090925953 22.8038087,0.090925953 L15.203652,0.090925953 L15.203652,9.31309073 L16.9387002,9.31309073 L16.9387002,1.71622736 L22.6836129,1.71622736 C23.4927085,1.71622736 24.1448818,2.38453312 24.1448818,3.20968614 C24.1448818,4.03370259 23.4927085,4.70314492 22.6836129,4.70314492 L17.7900869,4.70087177 L22.9718602,9.31309073 L25.4948584,9.31309073 L22.0080681,6.32617318 L22.8038087,6.32730975 Z M4.51513186,9.31309073 C2.02218254,9.31309073 0,7.25020817 0,4.70314492 C0,2.15608166 2.02218254,0.090925953 4.51513186,0.090925953 L9.76479342,0.090925953 C12.2588557,0.090925953 14.2799253,2.15608166 14.2799253,4.70314492 C14.2799253,7.25020817 12.2588557,9.31536388 9.76479342,9.31536388 L4.51513186,9.31309073 Z M9.64793642,7.6889259 C11.2627889,7.6889259 12.5704743,6.35231439 12.5704743,4.70314492 C12.5704743,3.05397545 11.2627889,1.71736394 9.64793642,1.71736394 L4.63198885,1.71622736 C3.01713642,1.71622736 1.70833803,3.05397545 1.70833803,4.70314492 C1.70833803,6.35231439 3.01713642,7.6889259 4.63198885,7.6889259 L9.64793642,7.6889259 Z M42.6272074,9.31309073 C40.1342581,9.31309073 38.1109626,7.25020817 38.1109626,4.70314492 C38.1109626,2.15608166 40.1342581,0.090925953 42.6272074,0.090925953 L48.8651453,0.090925953 L47.8423683,1.71736394 L42.7440644,1.71622736 C41.128099,1.71622736 39.8193006,3.05397545 39.8193006,4.70314492 C39.8193006,6.35231439 41.128099,7.6889259 42.7440644,7.6889259 L49.0053737,7.6889259 L47.9859355,9.31309073 L42.6272074,9.31309073 Z M63.8706969,7.6889259 C62.5340754,7.6889259 61.4033448,6.77057377 61.0583384,5.51920535 L68.4815402,5.51920535 L69.5043171,3.89276736 L61.0561126,3.89163079 C61.4022319,2.63685264 62.5307366,1.71622736 63.8706969,1.71622736 L68.965662,1.71736394 L69.9895519,0.090925953 L63.751614,0.090925953 C61.2586647,0.090925953 59.2353692,2.15608166 59.2353692,4.70314492 C59.2353692,7.25020817 61.2586647,9.31309073 63.751614,9.31309073 L69.1103421,9.31309073 L70.1308932,7.6889259 L63.8706969,7.6889259 Z" id="Fill-1"></path>
                    <path d="M70.8195239,1.16059015 C70.8195239,0.654986523 71.2151045,0.246417932 71.7031104,0.246417932 C72.1923487,0.246417932 72.5854647,0.654986523 72.5854647,1.16059015 C72.5854647,1.66747056 72.1923487,2.07731593 71.7031104,2.07731593 C71.2151045,2.07731593 70.8195239,1.66747056 70.8195239,1.16059015 Z M71.7031104,2.32884097 C72.3242089,2.32884097 72.8282353,1.80791602 72.8282353,1.16442049 C72.8282353,0.520924954 72.3242089,0 71.7031104,0 C71.0832443,0 70.5804503,0.520924954 70.5804503,1.16442049 C70.5804503,1.80791602 71.0832443,2.32884097 71.7031104,2.32884097 Z M71.5971293,0.473684211 C71.770889,0.473684211 71.8423647,0.474960987 71.927396,0.508157185 C72.1492169,0.586040573 72.171399,0.796708753 72.171399,0.874592141 C72.171399,0.889913463 72.1689343,0.934600653 72.1578433,0.981841396 C72.1455199,1.03035892 72.1171761,1.13122429 72.0013363,1.20527734 C71.9890129,1.21549156 71.9816189,1.22187544 71.9458811,1.23591999 L72.2379453,1.77855015 L71.9545074,1.77855015 L71.6981811,1.2793304 L71.5281184,1.2793304 L71.5281184,1.77855015 L71.2816507,1.77855015 L71.2816507,0.473684211 L71.5971293,0.473684211 Z M71.6858577,1.06355511 C71.7610303,1.06227834 71.8448293,1.05589445 71.8953552,0.981841396 C71.9150726,0.948645198 71.923699,0.914172223 71.923699,0.869485033 C71.923699,0.799262307 71.8879612,0.741807349 71.8288089,0.711164704 C71.7721214,0.688182721 71.7142015,0.688182721 71.5971293,0.688182721 L71.5281184,0.688182721 L71.5281184,1.06355511 L71.6858577,1.06355511 Z" id="Fill-2"></path>
                </g>
                <path d="M6.00757123,18.1728516 L7.06516544,18.4394531 C6.84346933,19.3063659 6.44460402,19.9674224 5.86855756,20.4226423 C5.2925111,20.8778622 4.58836392,21.1054688 3.7560949,21.1054688 C2.89475098,21.1054688 2.19423811,20.9304565 1.65453527,20.5804269 C1.11483243,20.2303972 0.704155629,19.7234966 0.422492532,19.0597098 C0.140829436,18.395923 0,17.683179 0,16.9214565 C0,16.0908162 0.159000976,15.3662838 0.477007698,14.7478376 C0.795014419,14.1293914 1.24748577,13.6596696 1.83443532,13.3386579 C2.42138487,13.0176463 3.06738312,12.8571429 3.77244945,12.8571429 C4.57200921,12.8571429 5.24435619,13.0602658 5.78951057,13.4665179 C6.33466495,13.8727699 6.71445014,14.4440532 6.92887753,15.180385 L5.88763787,15.4252232 C5.70228538,14.8448632 5.43334658,14.4222949 5.08081342,14.1575056 C4.72828025,13.8927163 4.28489467,13.7603237 3.75064338,13.7603237 C3.13643611,13.7603237 2.62309011,13.9072251 2.21058996,14.2010324 C1.79808981,14.4948396 1.50825375,14.8892972 1.34107307,15.3844169 C1.17389239,15.8795365 1.09030331,16.3900643 1.09030331,16.9160156 C1.09030331,17.5943114 1.1893382,18.1864512 1.38741096,18.6924526 C1.58548372,19.198454 1.89349132,19.5765892 2.31144301,19.8268694 C2.72939471,20.0771497 3.18186605,20.2022879 3.66887063,20.2022879 C4.26127173,20.2022879 4.76280623,20.0318097 5.1734892,19.6908482 C5.58417217,19.3498867 5.86219673,18.8438929 6.00757123,18.1728516 Z M7.87744141,18.0803571 C7.87744141,17.0103183 8.17545466,16.217776 8.77149012,15.7027065 C9.26939779,15.2746909 9.87632723,15.0606864 10.5922966,15.0606864 C11.388222,15.0606864 12.0387632,15.3209377 12.5439396,15.8414481 C13.049116,16.3619585 13.3017004,17.0810501 13.3017004,17.9987444 C13.3017004,18.7423307 13.1899454,19.3272161 12.9664321,19.753418 C12.7429188,20.1796199 12.4176482,20.5106015 11.9906106,20.7463728 C11.563573,20.982144 11.097473,21.1000279 10.5922966,21.1000279 C9.7818338,21.1000279 9.12674978,20.8406834 8.62702493,20.3219866 C8.12730008,19.8032898 7.87744141,19.0560875 7.87744141,18.0803571 Z M8.88597197,18.0803571 C8.88597197,18.8203162 9.04769867,19.3743704 9.37115694,19.7425363 C9.6946152,20.1107022 10.1016577,20.2947824 10.5922966,20.2947824 C11.0793012,20.2947824 11.4845266,20.1097954 11.8079848,19.7398158 C12.1314431,19.3698363 12.2931698,18.8058074 12.2931698,18.0477121 C12.2931698,17.3331437 12.1305345,16.7917848 11.8052591,16.4236189 C11.4799836,16.055453 11.0756669,15.8713728 10.5922966,15.8713728 C10.1016577,15.8713728 9.6946152,16.0545462 9.37115694,16.4208984 C9.04769867,16.7872507 8.88597197,17.3403981 8.88597197,18.0803571 Z M14.4519704,20.9694475 L14.4519704,15.1912667 L15.335116,15.1912667 L15.335116,16.0128348 C15.7603365,15.378066 16.3745345,15.0606864 17.1777286,15.0606864 C17.5266274,15.0606864 17.8473551,15.1232555 18.1399213,15.2483956 C18.4324875,15.3735358 18.6514545,15.5376664 18.796829,15.7407924 C18.9422035,15.9439184 19.0439642,16.185127 19.102114,16.4644252 C19.1384576,16.6457877 19.1566291,16.9631674 19.1566291,17.4165737 L19.1566291,20.9694475 L18.1753562,20.9694475 L18.1753562,17.4546596 C18.1753562,17.0556621 18.1371959,16.7573252 18.0608743,16.5596401 C17.9845527,16.3619549 17.8491747,16.2041719 17.6547363,16.0862863 C17.4602979,15.9684006 17.2322451,15.9094587 16.970571,15.9094587 C16.5526193,15.9094587 16.1919142,16.0418514 15.888445,16.3066406 C15.5849757,16.5714299 15.4332433,17.0737965 15.4332433,17.8137556 L15.4332433,20.9694475 L14.4519704,20.9694475 Z M20.2687385,19.2446987 L21.2391085,19.0923549 C21.2936239,19.4804707 21.4453563,19.7779008 21.6943101,19.984654 C21.9432639,20.1914073 22.2912489,20.2947824 22.7382755,20.2947824 C23.1889365,20.2947824 23.5232928,20.2031957 23.7413545,20.0200195 C23.9594163,19.8368434 24.0684455,19.621932 24.0684455,19.375279 C24.0684455,19.1540168 23.9721364,18.9799113 23.7795152,18.8529576 C23.6450438,18.7659036 23.3106874,18.6552741 22.7764361,18.5210658 C22.0568323,18.3397033 21.5580236,18.1828271 21.2799948,18.0504325 C21.0019661,17.9180378 20.7911762,17.7348645 20.6476189,17.5009068 C20.5040616,17.2669492 20.432284,17.0085115 20.432284,16.7255859 C20.432284,16.4680512 20.4913415,16.229563 20.6094583,16.0101144 C20.7275751,15.7906658 20.8883932,15.6083992 21.0919175,15.4633092 C21.2445607,15.3508644 21.4526249,15.2556505 21.7161162,15.1776646 C21.9796074,15.0996787 22.2621749,15.0606864 22.563827,15.0606864 C23.0181223,15.0606864 23.4169876,15.1259759 23.7604349,15.2565569 C24.1038821,15.3871379 24.3573751,15.5639637 24.5209214,15.7870396 C24.6844677,16.0101155 24.7971313,16.3084524 24.8589154,16.6820592 L23.8994485,16.8126395 C23.8558362,16.515205 23.729544,16.2830645 23.5205681,16.1162109 C23.3115923,15.9493574 23.0163048,15.8659319 22.6346967,15.8659319 C22.1840357,15.8659319 21.8623995,15.9402894 21.6697783,16.0890067 C21.477157,16.237724 21.3808479,16.4118294 21.3808479,16.6113281 C21.3808479,16.7382819 21.4208253,16.8525386 21.5007813,16.9541016 C21.5807372,17.0592918 21.7061209,17.1463445 21.8769359,17.2152623 C21.9750637,17.2515348 22.2639912,17.3349603 22.743727,17.4655413 C23.4378903,17.6505311 23.9221618,17.8019665 24.1965562,17.9198521 C24.4709506,18.0377378 24.6862833,18.2091228 24.8425609,18.4340123 C24.9988385,18.6589018 25.0769761,18.9381959 25.0769761,19.2719029 C25.0769761,19.5983554 24.9815755,19.9057603 24.7907715,20.1941267 C24.5999675,20.4824931 24.3246686,20.7055656 23.9648667,20.863351 C23.6050648,21.0211364 23.1980223,21.1000279 22.743727,21.1000279 C21.991414,21.1000279 21.4181019,20.9440585 21.0237736,20.632115 C20.6294452,20.3201714 20.3777694,19.857704 20.2687385,19.2446987 Z M30.0378562,20.9694475 L30.0378562,20.1206752 C29.5871952,20.7735803 28.9748143,21.1000279 28.2006951,21.1000279 C27.859065,21.1000279 27.5401545,21.0347384 27.2439539,20.9041574 C26.9477534,20.7735764 26.7278777,20.6094457 26.5843204,20.4117606 C26.4407631,20.2140755 26.3399111,19.9719601 26.2817613,19.6854074 C26.2417833,19.4931631 26.2217946,19.1884786 26.2217946,18.7713449 L26.2217946,15.1912667 L27.2030676,15.1912667 L27.2030676,18.3959263 C27.2030676,18.9073686 27.2230562,19.2519522 27.2630342,19.4296875 C27.3248184,19.6872223 27.4556535,19.8894384 27.6555434,20.0363421 C27.8554334,20.1832457 28.1025663,20.2566964 28.3969497,20.2566964 C28.691333,20.2566964 28.9675405,20.1814321 29.2255802,20.0309012 C29.4836199,19.8803703 29.6662439,19.6754338 29.7734576,19.4160854 C29.8806713,19.156737 29.9342773,18.7804154 29.9342773,18.2871094 L29.9342773,15.1912667 L30.9155503,15.1912667 L30.9155503,20.9694475 L30.0378562,20.9694475 Z M32.4310719,20.9694475 L32.4310719,12.9931641 L33.4123449,12.9931641 L33.4123449,20.9694475 L32.4310719,20.9694475 Z M37.075764,20.093471 L37.2175034,20.9585658 C36.9412919,21.0166019 36.6941589,21.0456194 36.4760972,21.0456194 C36.1199297,21.0456194 35.8437223,20.9893979 35.6474667,20.8769531 C35.4512111,20.7645084 35.3131074,20.6167001 35.2331514,20.433524 C35.1531954,20.2503479 35.1132181,19.8649583 35.1132181,19.2773438 L35.1132181,15.9529855 L34.3936179,15.9529855 L34.3936179,15.1912667 L35.1132181,15.1912667 L35.1132181,13.7603237 L36.0890395,13.1727121 L36.0890395,15.1912667 L37.075764,15.1912667 L37.075764,15.9529855 L36.0890395,15.9529855 L36.0890395,19.3317522 C36.0890395,19.6110505 36.1063025,19.7905967 36.1408289,19.8703962 C36.1753554,19.9501957 36.2316871,20.0136716 36.3098259,20.0608259 C36.3879647,20.1079801 36.4997197,20.1315569 36.6450942,20.1315569 C36.7541251,20.1315569 36.8976803,20.1188617 37.075764,20.093471 Z M38.0406824,14.1194196 L38.0406824,12.9931641 L39.0219554,12.9931641 L39.0219554,14.1194196 L38.0406824,14.1194196 Z M38.0406824,20.9694475 L38.0406824,15.1912667 L39.0219554,15.1912667 L39.0219554,20.9694475 L38.0406824,20.9694475 Z M40.515671,20.9694475 L40.515671,15.1912667 L41.3988166,15.1912667 L41.3988166,16.0128348 C41.8240371,15.378066 42.4382351,15.0606864 43.2414292,15.0606864 C43.590328,15.0606864 43.9110557,15.1232555 44.2036219,15.2483956 C44.4961881,15.3735358 44.7151551,15.5376664 44.8605296,15.7407924 C45.0059041,15.9439184 45.1076648,16.185127 45.1658146,16.4644252 C45.2021582,16.6457877 45.2203297,16.9631674 45.2203297,17.4165737 L45.2203297,20.9694475 L44.2390568,20.9694475 L44.2390568,17.4546596 C44.2390568,17.0556621 44.2008965,16.7573252 44.1245749,16.5596401 C44.0482533,16.3619549 43.9128753,16.2041719 43.7184369,16.0862863 C43.5239985,15.9684006 43.2959457,15.9094587 43.0342716,15.9094587 C42.6163199,15.9094587 42.2556148,16.0418514 41.9521456,16.3066406 C41.6486763,16.5714299 41.4969439,17.0737965 41.4969439,17.8137556 L41.4969439,20.9694475 L40.515671,20.9694475 Z M46.5450483,21.4482422 L47.4990636,21.5897042 C47.5390416,21.8835115 47.649888,22.0975161 47.8316062,22.2317243 C48.0751084,22.4130868 48.4076476,22.5037667 48.8292337,22.5037667 C49.283529,22.5037667 49.6342397,22.4130868 49.8813764,22.2317243 C50.128513,22.0503618 50.2956912,21.7964581 50.3829159,21.4700056 C50.433797,21.2705068 50.45742,20.8515657 50.4537856,20.2131696 C50.0249308,20.7173574 49.4906876,20.9694475 48.8510398,20.9694475 C48.0551144,20.9694475 47.4390991,20.6828991 47.0029756,20.1097935 C46.5668521,19.536688 46.3487937,18.8493344 46.3487937,18.0477121 C46.3487937,17.49637 46.4487371,16.9876558 46.6486271,16.5215541 C46.848517,16.0554525 47.1383531,15.6954533 47.518144,15.4415458 C47.8979348,15.1876382 48.3440462,15.0606864 48.8564913,15.0606864 C49.5397514,15.0606864 50.1030692,15.3363533 50.5464614,15.8876953 L50.5464614,15.1912667 L51.4514131,15.1912667 L51.4514131,20.1859654 C51.4514131,21.0855235 51.3596469,21.7230031 51.1761116,22.0984235 C50.9925762,22.473844 50.7018316,22.7703672 50.3038689,22.9880022 C49.9059062,23.2056372 49.4161832,23.3144531 48.8346852,23.3144531 C48.1441563,23.3144531 47.58629,23.1593905 47.1610696,22.8492606 C46.7358492,22.5391307 46.5305108,22.0721292 46.5450483,21.4482422 Z M47.3573242,17.976981 C47.3573242,18.7350763 47.508148,19.2882237 47.8098001,19.6364397 C48.1114522,19.9846558 48.4894202,20.1587612 48.9437155,20.1587612 C49.3943765,20.1587612 49.7723445,19.9855626 50.077631,19.6391602 C50.3829174,19.2927578 50.5355584,18.7495852 50.5355584,18.0096261 C50.5355584,17.3023123 50.3783745,16.7691145 50.0640022,16.4100167 C49.7496298,16.050919 49.3707532,15.8713728 48.927361,15.8713728 C48.4912375,15.8713728 48.1205381,16.0481986 47.8152516,16.4018555 C47.5099652,16.7555124 47.3573242,17.280549 47.3573242,17.976981 Z" id="Consulting"></path>
            </g>
        </g>
    </g>
</svg>