<?xml version="1.0" encoding="UTF-8"?>
<svg width="106px" height="32px" viewBox="0 0 106 32" version="1.1" xmlns="http://www.w3.org/2000/svg" xmlns:xlink="http://www.w3.org/1999/xlink">
    <!-- Generator: Sketch 49.3 (51167) - http://www.bohemiancoding.com/sketch -->
    <title>Group</title>
    <desc>Created with Sketch.</desc>
    <defs></defs>
    <g id="For-Sebastian" stroke="none" stroke-width="1" fill="none" fill-rule="evenodd">
        <g id="Desktop---Composite" transform="translate(-140.000000, -942.000000)">
            <g id="Group" transform="translate(140.000000, 942.000000)">
                <rect id="Rectangle-Copy-3" fill="#F80000" x="0" y="0" width="106" height="32"></rect>
                <g id="Group-3" transform="translate(10.600000, 10.867925)" fill="#FFFFFF">
                    <path d="M35.2489647,7.07025056 L40.6449681,7.07025056 L37.7953496,2.36956822 L32.5626258,10.8652725 L30.1769288,10.8679245 L36.5474266,0.664327744 C36.8169676,0.249288654 37.2834809,0 37.791462,0 C38.2929638,0 38.7529977,0.242658637 39.0238345,0.645763695 L45.4150663,10.8679245 L43.0293693,10.8652725 L41.9097374,8.96643554 L36.4424611,8.96643554 L35.2489647,7.07025056 Z M60.0052686,8.96908754 L60.0052686,0.106080278 L57.9824152,0.106080278 L57.9824152,9.83496782 C57.9824152,10.1041465 58.0886766,10.3613912 58.2765778,10.5536617 C58.4748459,10.7538882 58.7366117,10.8652725 59.0178155,10.8652725 L68.2392277,10.8652725 L69.4275407,8.96908754 L60.0052686,8.96908754 Z M26.5523799,7.38186138 C28.5143274,7.38186138 30.1069518,5.7522031 30.1069518,3.74463383 C30.1069518,1.73573856 28.5143274,0.106080278 26.5523799,0.106080278 L17.7028825,0.106080278 L17.7028825,10.8652725 L19.7231441,10.8652725 L19.7231441,2.00226526 L26.412426,2.00226526 C27.3545236,2.00226526 28.1139035,2.7819553 28.1139035,3.74463383 C28.1139035,4.70598635 27.3545236,5.4870024 26.412426,5.4870024 L20.7144848,5.4843504 L26.7480563,10.8652725 L29.685794,10.8652725 L25.6258328,7.38053537 L26.5523799,7.38186138 Z M5.25734531,10.8652725 C2.35459611,10.8652725 0,8.4585762 0,5.4870024 C0,2.5154286 2.35459611,0.106080278 5.25734531,0.106080278 L11.3699649,0.106080278 C14.27401,0.106080278 16.6273103,2.5154286 16.6273103,5.4870024 C16.6273103,8.4585762 14.27401,10.8679245 11.3699649,10.8679245 L5.25734531,10.8652725 Z M11.2338986,8.97041355 C13.1142062,8.97041355 14.6368537,7.41103345 14.6368537,5.4870024 C14.6368537,3.56297135 13.1142062,2.00359126 11.2338986,2.00359126 L5.39341168,2.00226526 C3.51310405,2.00226526 1.98916072,3.56297135 1.98916072,5.4870024 C1.98916072,7.41103345 3.51310405,8.97041355 5.39341168,8.97041355 L11.2338986,8.97041355 Z M49.6344196,10.8652725 C46.7316704,10.8652725 44.3757784,8.4585762 44.3757784,5.4870024 C44.3757784,2.5154286 46.7316704,0.106080278 49.6344196,0.106080278 L56.8977719,0.106080278 L55.7068672,2.00359126 L49.7704859,2.00226526 C47.8888824,2.00226526 46.3649391,3.56297135 46.3649391,5.4870024 C46.3649391,7.41103345 47.8888824,8.97041355 49.7704859,8.97041355 L57.0610515,8.97041355 L55.8740345,10.8652725 L49.6344196,10.8652725 Z M74.3699895,8.97041355 C72.8136494,8.97041355 71.4970453,7.89900273 71.0953256,6.4390729 L79.7387797,6.4390729 L80.9296843,4.54156192 L71.0927338,4.54023592 C71.4957495,3.07632808 72.8097618,2.00226526 74.3699895,2.00226526 L80.3024832,2.00359126 L81.4946837,0.106080278 L74.2313314,0.106080278 C71.3285822,0.106080278 68.9726902,2.5154286 68.9726902,5.4870024 C68.9726902,8.4585762 71.3285822,10.8652725 74.2313314,10.8652725 L80.4709463,10.8652725 L81.6592593,8.97041355 L74.3699895,8.97041355 Z" id="Fill-1"></path>
                    <path d="M82.4610895,1.35402185 C82.4610895,0.764150943 82.921697,0.287487587 83.4899231,0.287487587 C84.0595841,0.287487587 84.5173219,0.764150943 84.5173219,1.35402185 C84.5173219,1.94538232 84.0595841,2.42353525 83.4899231,2.42353525 C82.921697,2.42353525 82.4610895,1.94538232 82.4610895,1.35402185 Z M83.4899231,2.71698113 C84.21312,2.71698113 84.8,2.10923535 84.8,1.35849057 C84.8,0.60774578 84.21312,0 83.4899231,0 C82.7681611,0 82.182716,0.60774578 82.182716,1.35849057 C82.182716,2.10923535 82.7681611,2.71698113 83.4899231,2.71698113 Z M83.3665205,0.552631579 C83.5688434,0.552631579 83.6520684,0.554121152 83.7510775,0.59285005 C84.0093621,0.683714002 84.0351906,0.929493545 84.0351906,1.0203575 C84.0351906,1.03823237 84.0323208,1.09036743 84.0194065,1.14548163 C84.0050574,1.2020854 83.9720544,1.31976167 83.8371724,1.4061569 C83.8228233,1.41807349 83.8142138,1.42552135 83.7726013,1.44190665 L84.112676,2.07497517 L83.7826457,2.07497517 L83.4841835,1.49255214 L83.2861653,1.49255214 L83.2861653,2.07497517 L82.9991824,2.07497517 L82.9991824,0.552631579 L83.3665205,0.552631579 Z M83.4698343,1.2408143 C83.5573641,1.23932473 83.6549383,1.23187686 83.7137698,1.14548163 C83.7367284,1.10675273 83.7467728,1.06653426 83.7467728,1.01439921 C83.7467728,0.932472691 83.7051603,0.865441907 83.6362844,0.829692155 C83.5702783,0.802879841 83.5028373,0.802879841 83.3665205,0.802879841 L83.2861653,0.802879841 L83.2861653,1.2408143 L83.4698343,1.2408143 Z" id="Fill-2"></path>
                </g>
            </g>
        </g>
    </g>
</svg>