<?xml version="1.0" encoding="UTF-8"?>
<svg width="300px" height="101px" viewBox="0 0 300 101" version="1.1" xmlns="http://www.w3.org/2000/svg" xmlns:xlink="http://www.w3.org/1999/xlink">
    <!-- Generator: Sketch 49.3 (51167) - http://www.bohemiancoding.com/sketch -->
    <title>Group 8</title>
    <desc>Created with Sketch.</desc>
    <defs></defs>
    <g id="For-Sebastian" stroke="none" stroke-width="1" fill="none" fill-rule="evenodd">
        <g id="Desktop---Composite" transform="translate(-140.000000, -296.000000)">
            <g id="Group-29" transform="translate(140.000000, 296.000000)">
                <g id="Group-8">
                    <rect id="Rectangle-2" fill="#CCCCCC" x="108.510638" y="15.3417722" width="1.18855466" height="70.3164557"></rect>
                    <g id="Group-5" fill-rule="nonzero">
                        <path d="M61.7241835,0.832833583 L84.3141043,13.8174663 L84.3141043,39.7867316 L61.7241835,52.7713643 L39.1342627,39.7867316 L39.1342627,13.8174663 L61.7241835,0.832833583 Z M61.7241835,3.24848216 L41.2426553,15.0212158 L41.2426553,38.5829821 L61.7241835,50.3557157 L82.2057117,38.5829821 L82.2057117,15.0212158 L61.7241835,3.24848216 Z" id="Combined-Shape" fill="#FFFFFF" opacity="0.200000003"></path>
                        <path d="M39.1342627,28.2784858 L41.2426553,28.2784858 L41.2426553,38.5829821 L61.7241835,50.3557157 L82.2057117,38.5829821 L82.2057117,15.6724138 L84.3141043,15.6724138 L84.3141043,39.7867316 L61.7241835,52.7713643 L39.1342627,39.7867316 L39.1342627,28.2784858 Z" id="Combined-Shape" fill="#F80000"></path>
                        <path d="M41.1422556,48.6450525 L63.7321765,61.6296852 L63.7321765,87.5989505 L41.1422556,100.583583 L18.5523348,87.5989505 L18.5523348,61.6296852 L41.1422556,48.6450525 Z M20.6607274,62.8334347 L20.6607274,86.395201 L41.1422556,98.1679346 L61.6237839,86.395201 L61.6237839,62.8334347 L41.1422556,51.0607011 L20.6607274,62.8334347 Z" id="Combined-Shape" fill="#FFFFFF" opacity="0.200000003"></path>
                        <path d="M63.7321765,69.3901799 L61.6237839,69.3901799 L61.6237839,62.8334347 L41.1422556,51.0607011 L20.6607274,62.8334347 L20.6607274,85.744003 L18.5523348,85.744003 L18.5523348,61.6296852 L41.1422556,48.6450525 L63.7321765,61.6296852 L63.7321765,69.3901799 Z" id="Combined-Shape" fill="#F80000"></path>
                        <path d="M16.0423839,18.0923562 L31.9638873,27.150133 L31.9638873,45.2656865 L16.0423839,54.3234633 L0.120880456,45.2656865 L0.120880456,27.150133 L16.0423839,18.0923562 Z M2.22927307,28.3601006 L2.22927307,44.0557189 L16.0423839,51.9140267 L29.8554947,44.0557189 L29.8554947,28.3601006 L16.0423839,20.5017928 L2.22927307,28.3601006 Z" id="Combined-Shape" fill="#FFFFFF" opacity="0.200000003"></path>
                        <path d="M16.6698414,53.9665014 L16.6698414,51.5570648 L29.8554947,44.0557189 L29.8554947,28.3601006 L16.0423839,20.5017928 L7.25737435,25.4996032 L7.25737435,23.0901666 L16.0423839,18.0923562 L31.9638873,27.150133 L31.9638873,45.2656865 L16.6698414,53.9665014 Z" id="Combined-Shape" fill="#FFFFFF"></path>
                    </g>
                    <g id="Group-7" transform="translate(135.319149, 24.291139)" fill="#FFFFFF">
                        <path d="M10.8115247,9.26712755 C10.8115247,10.5458897 10.6883176,11.7129352 10.4418999,12.7682992 C10.1954821,13.8236631 9.84126195,14.7287974 9.37922867,15.4837293 C8.91719539,16.2386612 8.35506333,16.8241098 7.69281563,17.2400926 C7.03056793,17.6560755 6.2759249,17.8640638 5.42886388,17.8640638 C4.58180287,17.8640638 3.82330962,17.6560755 3.15336136,17.2400926 C2.48341311,16.8241098 1.91358061,16.2386612 1.44384678,15.4837293 C0.974112944,14.7287974 0.616042524,13.8236631 0.369624775,12.7682992 C0.123207026,11.7129352 0,10.5458897 0,9.26712755 C0,8.00377217 0.119356807,6.8444299 0.358074001,5.78906596 C0.596791195,4.73370202 0.947161176,3.83241933 1.40919445,3.08519084 C1.87122773,2.33796236 2.43721001,1.75636541 3.10715827,1.34038254 C3.77710652,0.924399671 4.55100065,0.716411357 5.42886388,0.716411357 C6.2759249,0.716411357 7.03056793,0.924399671 7.69281563,1.34038254 C8.35506333,1.75636541 8.91719539,2.33796236 9.37922867,3.08519084 C9.84126195,3.83241933 10.1954821,4.73370202 10.4418999,5.78906596 C10.6883176,6.8444299 10.8115247,8.00377217 10.8115247,9.26712755 Z M9.12511163,9.26712755 C9.12511163,8.28109408 9.04810724,7.35670158 8.89409615,6.4939223 C8.74008506,5.63114302 8.50522166,4.88392574 8.18949892,4.25224805 C7.87377618,3.62057036 7.48490401,3.11985776 7.02287073,2.75009521 C6.56083745,2.38033266 6.02950715,2.19545416 5.42886388,2.19545416 C4.7974184,2.19545416 4.246837,2.38033266 3.77710317,2.75009521 C3.30736934,3.11985776 2.91849716,3.62057036 2.61047497,4.25224805 C2.30245279,4.88392574 2.07143961,5.63114302 1.91742852,6.4939223 C1.76341743,7.35670158 1.68641304,8.28109408 1.68641304,9.26712755 C1.68641304,10.253161 1.76341743,11.1775535 1.91742852,12.0403328 C2.07143961,12.9031121 2.30245279,13.6580326 2.61047497,14.3051171 C2.91849716,14.9522015 3.30736934,15.4606174 3.77710317,15.83038 C4.246837,16.2001425 4.7974184,16.385021 5.42886388,16.385021 C6.04490826,16.385021 6.583939,16.2001425 7.04597227,15.83038 C7.50800555,15.4606174 7.89302751,14.9522015 8.2010497,14.3051171 C8.50907188,13.6580326 8.74008506,12.9031121 8.89409615,12.0403328 C9.04810724,11.1775535 9.12511163,10.253161 9.12511163,9.26712755 Z M15.3856313,8.5044961 C15.6012468,7.50305587 15.9323657,6.7789484 16.3789978,6.33215199 C16.82563,5.88535558 17.333859,5.66196072 17.9037,5.66196072 C18.0269089,5.66196072 18.1193142,5.66966399 18.1809186,5.68507077 L18.1347155,7.25655374 C18.0731111,7.24114697 18.0153578,7.22959206 17.9614539,7.22188868 C17.90755,7.21418529 17.8420963,7.21033365 17.7650908,7.21033365 C17.380063,7.21033365 17.0373935,7.34128926 16.7370718,7.6032044 C16.4367502,7.86511954 16.1864859,8.20406346 15.9862715,8.62004632 C15.7860571,9.03602919 15.6358985,9.50978035 15.5357913,10.041314 C15.4356841,10.5728477 15.3856313,11.1005217 15.3856313,11.624352 L15.3856313,17.4711931 L13.8609291,17.4711931 L13.8609291,8.89736685 C13.8609291,8.65085848 13.8570788,8.38509564 13.8493783,8.10007034 C13.8416777,7.81504504 13.8339773,7.53772729 13.8262767,7.26810876 C13.8185762,6.99849024 13.8108757,6.75198557 13.8031752,6.52858736 C13.7954746,6.30518916 13.783924,6.13186556 13.7685229,6.00861138 L15.247022,6.00861138 C15.2778242,6.30134006 15.3009255,6.66724543 15.3163266,7.10633846 C15.3317277,7.54543148 15.3394282,8.01147937 15.3394282,8.5044961 L15.3856313,8.5044961 Z M24.9034692,17.4711931 C24.8880681,17.3479389 24.8765175,17.1938735 24.8688169,17.0089922 C24.8611163,16.8241109 24.8534159,16.6276775 24.8457153,16.4196861 C24.8380148,16.2116947 24.8341646,16.0114096 24.8341646,15.818825 L24.8341646,15.321959 L24.7879615,15.321959 C24.4029337,16.9550769 23.478881,17.7716237 22.0157757,17.7716237 C21.6923524,17.7716237 21.3689339,17.7099975 21.0455106,17.5867433 C20.7220873,17.4634891 20.4294706,17.2632041 20.1676518,16.9858822 C19.9058329,16.7085603 19.6902206,16.3580614 19.5208084,15.9343752 C19.3513962,15.5106889 19.2666914,14.9984214 19.2666914,14.3975573 C19.2666914,13.5655915 19.4129997,12.895407 19.7056208,12.3869835 C19.9982419,11.87856 20.367863,11.4779899 20.8144951,11.1852612 C21.2611273,10.8925325 21.7501052,10.6960991 22.2814435,10.5959551 C22.8127817,10.495811 23.3171605,10.4457398 23.7945949,10.4457398 L24.6955553,10.4457398 L24.6955553,9.84487864 C24.6955553,8.84343841 24.5107447,8.11162767 24.1411181,7.64942449 C23.7714915,7.1872213 23.270963,6.95612317 22.6395175,6.95612317 C22.2082864,6.95612317 21.8078636,7.07167224 21.438237,7.30277383 C21.0686103,7.53387542 20.7528923,7.82659972 20.4910735,8.18095549 L19.6825193,7.2334437 C20.0367448,6.72502019 20.4987711,6.33215338 21.0686122,6.05483147 C21.6384532,5.77750955 22.2082857,5.63885068 22.7781268,5.63885068 C23.9794133,5.63885068 24.834162,6.03171749 25.3423986,6.81746291 C25.8506352,7.60320833 26.1047497,8.75099569 26.1047497,10.2608594 L26.1047497,15.0215284 C26.1047497,15.1755962 26.1086,15.3681779 26.1163005,15.5992795 C26.1240011,15.8303811 26.1317015,16.0653309 26.1394021,16.3041359 C26.1471026,16.5429409 26.1586533,16.7663357 26.1740544,16.9743271 C26.1894555,17.1823186 26.2048564,17.3479389 26.2202575,17.4711931 L24.9034692,17.4711931 Z M24.7186568,11.6474621 L23.7945949,11.6474621 C23.4249683,11.6474621 23.0553472,11.6821268 22.6857206,11.7514573 C22.3160939,11.8207877 21.9888253,11.9517433 21.7039048,12.144328 C21.4189842,12.3369127 21.1841208,12.6026755 20.9993075,12.9416245 C20.8144942,13.2805735 20.722089,13.71966 20.722089,14.258897 C20.722089,15.0600492 20.8991991,15.6377945 21.2534246,15.9921503 C21.6076501,16.3465061 21.992672,16.5236813 22.408502,16.5236813 C22.839733,16.5236813 23.2055039,16.3927257 23.5058255,16.1308105 C23.8061472,15.8688954 24.0448608,15.5376548 24.2219735,15.1370787 C24.3990863,14.7365026 24.5261435,14.2974161 24.6031491,13.8198062 C24.6801546,13.3421962 24.7186568,12.88 24.7186568,12.4332035 L24.7186568,11.6474621 Z M35.2298614,16.6623416 C34.613817,17.448087 33.7667687,17.8409538 32.688691,17.8409538 C32.0418445,17.8409538 31.472012,17.69074 30.9791765,17.3903079 C30.486341,17.0898759 30.0743675,16.6738992 29.7432436,16.1423656 C29.4121198,15.6108319 29.1618555,14.9714604 28.9924433,14.2242319 C28.8230311,13.4770035 28.7383263,12.6489018 28.7383263,11.7399022 C28.7383263,10.8309026 28.8230311,10.002801 28.9924433,9.25557253 C29.1618555,8.50834404 29.41597,7.86512092 29.7547944,7.32588387 C30.0936188,6.78664682 30.5094425,6.37067019 31.002278,6.07794151 C31.4951135,5.78521282 32.064946,5.63885068 32.7117926,5.63885068 C33.2970347,5.63885068 33.7975633,5.74669647 34.2133932,5.96239129 C34.6292232,6.17808611 34.9603421,6.43229405 35.2067598,6.72502273 L34.3982056,7.83430484 C34.2133923,7.5723897 33.9823791,7.36440138 33.7051592,7.21033365 C33.4279392,7.05626593 33.1045208,6.97923322 32.7348941,6.97923322 C32.3190642,6.97923322 31.9609938,7.09863391 31.6606721,7.33743889 C31.3603505,7.57624387 31.1100862,7.90748452 30.9098718,8.33117078 C30.7096574,8.75485703 30.5594988,9.25556964 30.4593916,9.83332362 C30.3592844,10.4110776 30.3092316,11.0465975 30.3092316,11.7399022 C30.3092316,12.4178002 30.3592844,13.0417652 30.4593916,13.6118158 C30.5594988,14.1818664 30.7096574,14.6748757 30.9098718,15.0908586 C31.1100862,15.5068414 31.3680509,15.8303788 31.6837737,16.0614804 C31.9994964,16.292582 32.3729677,16.4081311 32.8041988,16.4081311 C33.1892265,16.4081311 33.5241956,16.3272467 33.8091161,16.1654756 C34.0940367,16.0037045 34.3366005,15.776458 34.5368149,15.4837293 L35.2298614,16.6623416 Z M37.193493,17.4711931 L37.193493,0 L38.7181952,0 L38.7181952,17.4711931 L37.193493,17.4711931 Z M43.1305909,12.0634428 C43.1305909,12.6951205 43.184494,13.2767175 43.2923018,13.8082511 C43.4001095,14.3397848 43.5579685,14.8019811 43.7658835,15.1948538 C43.9737985,15.5877265 44.2356134,15.8958573 44.5513362,16.1192555 C44.8670589,16.3426537 45.2405302,16.4543512 45.6717613,16.4543512 C46.2262012,16.4543512 46.6728267,16.2848792 47.0116511,15.9459302 C47.3504755,15.6069812 47.6122904,15.1987078 47.7971037,14.7210979 L48.9521811,15.3912891 C48.6749612,16.0845939 48.2629877,16.6661909 47.7162483,17.1360974 C47.1695089,17.606004 46.4726192,17.8409538 45.6255582,17.8409538 C44.3472661,17.8409538 43.3539095,17.3017248 42.6454584,16.2232507 C41.9370074,15.1447766 41.5827872,13.6580453 41.5827872,11.7630123 C41.5827872,10.8694194 41.6751925,10.0451695 41.8600058,9.29023759 C42.0448191,8.53530572 42.3104842,7.88823097 42.6570092,7.34899392 C43.0035342,6.80975687 43.4270583,6.3899286 43.9275944,6.08949653 C44.4281304,5.78906446 44.9864123,5.63885068 45.6024566,5.63885068 C46.2801054,5.63885068 46.8537882,5.78521282 47.323522,6.07794151 C47.7932558,6.37067019 48.1744276,6.77124028 48.4670486,7.27966379 C48.7596697,7.78808729 48.9714318,8.38123915 49.1023412,9.05913715 C49.2332506,9.73703516 49.2987044,10.4611426 49.2987044,11.2314813 L49.2987044,12.0634428 L43.1305909,12.0634428 Z M47.7509006,10.7923904 C47.7509006,9.63688247 47.5737905,8.70863833 47.219565,8.00763016 C46.8653395,7.306622 46.3109079,6.95612317 45.5562535,6.95612317 C45.1096214,6.95612317 44.7361501,7.09093041 44.4358284,7.36054894 C44.1355068,7.63016746 43.8890927,7.96140811 43.6965789,8.35428082 C43.504065,8.74715353 43.3654571,9.16698179 43.280751,9.61377821 C43.1960449,10.0605746 43.1536925,10.4534414 43.1536925,10.7923904 L47.7509006,10.7923904 Z M65.1925697,15.6223896 C64.7613386,16.3465079 64.2146075,16.9011434 63.5523598,17.2863127 C62.8901121,17.6714821 62.1431695,17.8640638 61.3115096,17.8640638 C60.4182452,17.8640638 59.6251,17.6445206 58.9320501,17.2054276 C58.2390002,16.7663346 57.6537668,16.1654794 57.1763324,15.4028442 C56.698898,14.6402089 56.3331271,13.7350746 56.0790088,12.687414 C55.8248905,11.6397535 55.6978333,10.5073726 55.6978333,9.29023759 C55.6978333,8.05769576 55.8248905,6.91761167 56.0790088,5.86995112 C56.3331271,4.82229056 56.7027482,3.91715623 57.1878832,3.15452097 C57.6730181,2.39188572 58.2621017,1.79488222 58.9551516,1.36349258 C59.6482015,0.932102941 60.4336463,0.716411357 61.3115096,0.716411357 C62.081565,0.716411357 62.8015561,0.878180045 63.4715043,1.20172228 C64.1414526,1.52526451 64.6997344,2.03368038 65.1463666,2.72698516 L64.1067969,3.79004718 C63.7525714,3.25081013 63.3405979,2.85024004 62.8708641,2.5883249 C62.4011303,2.32640976 61.9044519,2.19545416 61.3808142,2.19545416 C60.7031654,2.19545416 60.1140818,2.38033266 59.6135458,2.75009521 C59.1130097,3.11985776 58.697186,3.62827364 58.3660621,4.2753581 C58.0349383,4.92244256 57.7885242,5.6773631 57.6268126,6.54014238 C57.4651009,7.40292167 57.3842463,8.3196109 57.3842463,9.29023759 C57.3842463,10.2608643 57.4689512,11.1737019 57.6383634,12.0287778 C57.8077756,12.8838537 58.0580398,13.6349226 58.3891637,14.282007 C58.7202875,14.9290915 59.1361113,15.441359 59.6366473,15.818825 C60.1371834,16.1962909 60.726267,16.385021 61.4039158,16.385021 C61.9891579,16.385021 62.5204882,16.2194007 62.9979226,15.8881551 C63.475357,15.5569095 63.8680794,15.1216747 64.1761016,14.5824376 L65.1925697,15.6223896 Z M74.6873061,11.7630123 C74.6873061,12.6720119 74.5949008,13.4962619 74.4100875,14.235787 C74.2252742,14.9753121 73.9634593,15.6146835 73.6246349,16.1539206 C73.2858105,16.6931576 72.8661365,17.1091343 72.3656005,17.401863 C71.8650644,17.6945916 71.3067826,17.8409538 70.6907382,17.8409538 C70.0746939,17.8409538 69.5202622,17.6945916 69.0274267,17.401863 C68.5345912,17.1091343 68.1149173,16.6931576 67.7683924,16.1539206 C67.4218674,15.6146835 67.1562022,14.9753121 66.9713889,14.235787 C66.7865756,13.4962619 66.6941704,12.6720119 66.6941704,11.7630123 C66.6941704,10.8540127 66.7827254,10.0220594 66.9598382,9.26712755 C67.1369509,8.51219568 67.3949156,7.86512092 67.73374,7.32588387 C68.0725644,6.78664682 68.4922384,6.37067019 68.9927744,6.07794151 C69.4933105,5.78521282 70.0592928,5.63885068 70.6907382,5.63885068 C71.3067826,5.63885068 71.8650644,5.78521282 72.3656005,6.07794151 C72.8661365,6.37067019 73.2858105,6.78664682 73.6246349,7.32588387 C73.9634593,7.86512092 74.2252742,8.51219568 74.4100875,9.26712755 C74.5949008,10.0220594 74.6873061,10.8540127 74.6873061,11.7630123 Z M73.1164008,11.7399022 C73.1164008,11.0620042 73.066348,10.430336 72.9662408,9.84487864 C72.8661335,9.25942127 72.715975,8.75485703 72.5157606,8.33117078 C72.3155461,7.90748452 72.0652819,7.57239224 71.7649602,7.32588387 C71.4646386,7.07937551 71.1065682,6.95612317 70.6907382,6.95612317 C70.2749083,6.95612317 69.9129876,7.07937551 69.6049655,7.32588387 C69.2969433,7.57239224 69.046679,7.90748452 68.8541651,8.33117078 C68.6616513,8.75485703 68.5153429,9.25942127 68.4152357,9.84487864 C68.3151285,10.430336 68.2650756,11.0620042 68.2650756,11.7399022 C68.2650756,12.4178002 68.3151285,13.0417652 68.4152357,13.6118158 C68.5153429,14.1818664 68.6616513,14.682579 68.8541651,15.1139686 C69.046679,15.5453583 69.2969433,15.8804505 69.6049655,16.1192555 C69.9129876,16.3580605 70.2749083,16.4774612 70.6907382,16.4774612 C71.1065682,16.4774612 71.4684888,16.3580605 71.776511,16.1192555 C72.0845332,15.8804505 72.3347975,15.5453583 72.5273113,15.1139686 C72.7198252,14.682579 72.8661335,14.1818664 72.9662408,13.6118158 C73.066348,13.0417652 73.1164008,12.4178002 73.1164008,11.7399022 Z M83.4196914,17.4711931 L83.4196914,10.0759791 C83.4196914,9.7216233 83.4004403,9.36342121 83.3619376,9.00136205 C83.3234348,8.63930288 83.23873,8.30806223 83.1078205,8.00763016 C82.9769111,7.70719809 82.7921006,7.46069342 82.5533834,7.26810876 C82.3146662,7.0755241 82.0027984,6.97923322 81.6177706,6.97923322 C81.2327429,6.97923322 80.8900734,7.08322737 80.5897517,7.29121881 C80.2894301,7.49921024 80.0353156,7.78423126 79.8274006,8.14629043 C79.6194857,8.50834959 79.4577764,8.92432622 79.3422681,9.39423279 C79.2267598,9.86413936 79.1690065,10.3532971 79.1690065,10.8617206 L79.1690065,17.4711931 L77.6443043,17.4711931 L77.6443043,8.89736685 C77.6443043,8.65085848 77.6404541,8.38509564 77.6327535,8.10007034 C77.625053,7.81504504 77.6173525,7.53772729 77.609652,7.26810876 C77.6019514,6.99849024 77.594251,6.75198557 77.5865504,6.52858736 C77.5788499,6.30518916 77.5672992,6.13186556 77.5518981,6.00861138 L79.0303972,6.00861138 C79.0611994,6.30134006 79.0843008,6.65569052 79.0997019,7.07167339 C79.115103,7.48765626 79.1228034,7.88052307 79.1228034,8.25028562 L79.1690065,8.25028562 C79.384622,7.47994698 79.7388422,6.8521304 80.2316777,6.36681706 C80.7245132,5.88150371 81.3405484,5.63885068 82.0798016,5.63885068 C82.695846,5.63885068 83.1925243,5.76980628 83.5698515,6.03172142 C83.9471787,6.29363656 84.2359451,6.63643212 84.4361596,7.06011837 C84.636374,7.48380462 84.7711317,7.96140742 84.8404367,8.49294108 C84.9097416,9.02447475 84.9443936,9.5521488 84.9443936,10.0759791 L84.9443936,17.4711931 L83.4196914,17.4711931 Z M92.7758185,7.99607514 C92.5756041,7.65712614 92.3176394,7.38366002 92.0019167,7.17566859 C91.6861939,6.96767715 91.3050222,6.863683 90.85839,6.863683 C90.3655545,6.863683 89.9612815,7.04470986 89.6455587,7.40676903 C89.329836,7.76882819 89.171977,8.24257935 89.171977,8.82803672 C89.171977,9.44430763 89.3259858,9.89109734 89.634008,10.1684193 C89.9420301,10.4457412 90.4040565,10.6999491 91.0201009,10.9310507 C91.328123,11.0543049 91.6361406,11.2045187 91.9441628,11.3816966 C92.252185,11.5588744 92.5255506,11.7784177 92.7642678,12.0403328 C93.002985,12.3022479 93.1993462,12.6142304 93.3533573,12.9762896 C93.5073683,13.3383487 93.5843727,13.7735835 93.5843727,14.282007 C93.5843727,15.4067015 93.2802054,16.2810227 92.6718616,16.904997 C92.0635178,17.5289713 91.2742227,17.8409538 90.3039529,17.8409538 C89.6571063,17.8409538 89.0641725,17.69074 88.5251336,17.3903079 C87.9860948,17.0898759 87.5394693,16.6854541 87.1852438,16.1770306 L88.1093058,15.1832988 C88.3711246,15.5838748 88.6829924,15.9112639 89.0449185,16.1654756 C89.4068445,16.4196874 89.8342189,16.5467913 90.3270544,16.5467913 C90.8660932,16.5467913 91.301168,16.3503579 91.6322919,15.9574852 C91.9634157,15.5646125 92.1289752,15.0446417 92.1289752,14.3975573 C92.1289752,14.0277947 92.0673717,13.7158122 91.9441628,13.4616005 C91.8209539,13.2073887 91.6592447,12.9955488 91.4590303,12.8260743 C91.2588159,12.6565998 91.0316529,12.5102376 90.7775346,12.3869835 C90.5234163,12.2637293 90.2577512,12.1481802 89.9805312,12.0403328 C89.6879101,11.9324854 89.4068441,11.8015298 89.1373247,11.6474621 C88.8678053,11.4933943 88.6252414,11.2931093 88.4096259,11.0466009 C88.1940104,10.8000926 88.0207505,10.5035166 87.889841,10.1568642 C87.7589316,9.81021184 87.6934779,9.39038358 87.6934779,8.89736685 C87.6934779,8.41975689 87.7743325,7.98067045 87.9360441,7.58009435 C88.0977558,7.17951826 88.3249187,6.8367227 88.6175398,6.55169741 C88.9101609,6.26667211 89.24513,6.04327725 89.6224572,5.88150614 C89.9997844,5.71973502 90.4117579,5.63885068 90.85839,5.63885068 C91.5052366,5.63885068 92.0635185,5.76595465 92.5332523,6.0201664 C93.0029861,6.27437815 93.3841579,6.60176717 93.6767789,7.00234326 L92.7758185,7.99607514 Z M97.6964484,6.00861138 L97.6964484,13.4038254 C97.6964484,13.7581812 97.7156995,14.1163833 97.7542022,14.4784424 C97.792705,14.8405016 97.8774098,15.1717422 98.0083193,15.4721743 C98.1392287,15.7726064 98.320189,16.019111 98.5512057,16.2116957 C98.7822223,16.4042804 99.0979403,16.5005712 99.4983691,16.5005712 C99.8833969,16.5005712 100.226066,16.3965771 100.526388,16.1885857 C100.82671,15.9805942 101.080824,15.6955732 101.288739,15.333514 C101.496654,14.9714549 101.658363,14.5554782 101.773872,14.0855717 C101.88938,13.6156651 101.947133,13.1265074 101.947133,12.6180839 L101.947133,6.00861138 L103.471835,6.00861138 L103.471835,14.5824376 C103.471835,14.828946 103.475686,15.0947088 103.483386,15.3797341 C103.491087,15.6647594 103.498787,15.9420772 103.506488,16.2116957 C103.514188,16.4813142 103.521889,16.7316705 103.529589,16.9627721 C103.53729,17.1938737 103.548841,17.3633457 103.564242,17.4711931 L102.085743,17.4711931 C102.05494,17.1784644 102.031839,16.8241139 102.016438,16.4081311 C102.001037,15.9921482 101.993336,15.5992814 101.993336,15.2295188 L101.947133,15.2295188 C101.731518,15.9998575 101.377298,16.6276741 100.884462,17.1129874 C100.391627,17.5983008 99.7755914,17.8409538 99.0363382,17.8409538 C98.4202938,17.8409538 97.9236155,17.7099982 97.5462883,17.448083 C97.1689611,17.1861679 96.8801947,16.8433723 96.6799802,16.4196861 C96.4797658,15.9959998 96.3450081,15.5222487 96.2757031,14.9984184 C96.2063981,14.4745881 96.1717462,13.9430624 96.1717462,13.4038254 L96.1717462,6.00861138 L97.6964484,6.00861138 Z M107.12188,17.4711931 L107.12188,0 L108.646582,0 L108.646582,17.4711931 L107.12188,17.4711931 Z M115.92357,17.4711931 C115.754158,17.5482269 115.546246,17.6175564 115.299828,17.6791835 C115.053411,17.7408106 114.799296,17.7716237 114.537477,17.7716237 C113.736619,17.7716237 113.170637,17.4943059 112.839513,16.9396621 C112.50839,16.3850183 112.34283,15.6455042 112.34283,14.7210979 L112.34283,7.25655374 L110.841229,7.25655374 L110.841229,6.00861138 L112.319729,6.00861138 L112.319729,2.84253538 L113.821329,2.84253538 L113.821329,6.00861138 L115.854265,6.00861138 L115.854265,7.25655374 L113.821329,7.25655374 L113.821329,14.4437774 C113.821329,15.1370821 113.921435,15.6416464 114.121649,15.9574852 C114.321864,16.2733241 114.622181,16.4312411 115.02261,16.4312411 C115.16122,16.4312411 115.307528,16.4119829 115.461539,16.373466 C115.61555,16.3349491 115.746458,16.2925811 115.854265,16.2463608 L115.92357,17.4711931 Z M119.758427,2.49588473 C119.758427,2.81942696 119.658321,3.0851898 119.458107,3.29318124 C119.257893,3.50117267 119.019179,3.60516683 118.741959,3.60516683 C118.449338,3.60516683 118.206774,3.50117267 118.01426,3.29318124 C117.821746,3.0851898 117.725491,2.81942696 117.725491,2.49588473 C117.725491,2.18774927 117.821746,1.92583806 118.01426,1.71014324 C118.206774,1.49444842 118.449338,1.38660263 118.741959,1.38660263 C119.03458,1.38660263 119.277144,1.49444842 119.469658,1.71014324 C119.662172,1.92583806 119.758427,2.18774927 119.758427,2.49588473 Z M117.979608,17.4711931 L117.979608,6.00861138 L119.50431,6.00861138 L119.50431,17.4711931 L117.979608,17.4711931 Z M128.929742,17.4711931 L128.929742,10.0759791 C128.929742,9.7216233 128.910491,9.36342121 128.871988,9.00136205 C128.833485,8.63930288 128.74878,8.30806223 128.617871,8.00763016 C128.486962,7.70719809 128.302151,7.46069342 128.063434,7.26810876 C127.824717,7.0755241 127.512849,6.97923322 127.127821,6.97923322 C126.742793,6.97923322 126.400124,7.08322737 126.099802,7.29121881 C125.799481,7.49921024 125.545366,7.78423126 125.337451,8.14629043 C125.129536,8.50834959 124.967827,8.92432622 124.852319,9.39423279 C124.73681,9.86413936 124.679057,10.3532971 124.679057,10.8617206 L124.679057,17.4711931 L123.154355,17.4711931 L123.154355,8.89736685 C123.154355,8.65085848 123.150505,8.38509564 123.142804,8.10007034 C123.135103,7.81504504 123.127403,7.53772729 123.119702,7.26810876 C123.112002,6.99849024 123.104301,6.75198557 123.096601,6.52858736 C123.0889,6.30518916 123.07735,6.13186556 123.061949,6.00861138 L124.540448,6.00861138 C124.57125,6.30134006 124.594351,6.65569052 124.609752,7.07167339 C124.625153,7.48765626 124.632854,7.88052307 124.632854,8.25028562 L124.679057,8.25028562 C124.894672,7.47994698 125.248893,6.8521304 125.741728,6.36681706 C126.234564,5.88150371 126.850599,5.63885068 127.589852,5.63885068 C128.205896,5.63885068 128.702575,5.76980628 129.079902,6.03172142 C129.457229,6.29363656 129.745996,6.63643212 129.94621,7.06011837 C130.146424,7.48380462 130.281182,7.96140742 130.350487,8.49294108 C130.419792,9.02447475 130.454444,9.5521488 130.454444,10.0759791 L130.454444,17.4711931 L128.929742,17.4711931 Z M141.127359,17.3094228 C141.127359,18.1259817 141.061906,18.8809023 140.930996,19.5742071 C140.800087,20.2675118 140.580624,20.868367 140.272602,21.3767905 C139.96458,21.885214 139.548756,22.2857841 139.025119,22.5785128 C138.501481,22.8712414 137.846943,23.0176036 137.061487,23.0176036 C136.306833,23.0176036 135.602242,22.84428 134.947695,22.4976276 C134.293148,22.1509752 133.765668,21.6849273 133.365239,21.09947 L134.358606,20.0364079 C134.666628,20.5140179 135.0555,20.8991814 135.525234,21.1919101 C135.994968,21.4846388 136.522448,21.631001 137.10769,21.631001 C137.615927,21.631001 138.035601,21.5231552 138.366724,21.3074603 C138.697848,21.0917655 138.955813,20.791338 139.140626,20.4061686 C139.32544,20.0209993 139.456347,19.5665063 139.533353,19.0426761 C139.610358,18.5188458 139.64886,17.9411005 139.64886,17.3094228 L139.64886,15.4143992 L139.602657,15.4143992 C139.417844,16.107704 139.109826,16.6854493 138.678595,17.1476525 C138.247364,17.6098557 137.63903,17.8409538 136.853573,17.8409538 C136.268331,17.8409538 135.752401,17.6868884 135.305769,17.3787529 C134.859137,17.0706175 134.481816,16.6430859 134.173793,16.0961455 C133.865771,15.549205 133.630908,14.9021303 133.469196,14.1549018 C133.307484,13.4076733 133.22663,12.587275 133.22663,11.6936821 C133.22663,10.8000893 133.303634,9.9835426 133.457645,9.2440175 C133.611656,8.50449241 133.838819,7.86897256 134.139141,7.33743889 C134.439463,6.80590523 134.816784,6.3899286 135.271117,6.08949653 C135.72545,5.78906446 136.245229,5.63885068 136.830471,5.63885068 C137.523521,5.63885068 138.112605,5.85069063 138.59774,6.27437688 C139.082875,6.69806314 139.410143,7.25655027 139.579556,7.94985505 L139.64886,7.94985505 L139.64886,6.00861138 L141.127359,6.00861138 L141.127359,17.3094228 Z M139.64886,11.7399022 C139.64886,11.077411 139.598807,10.4534461 139.4987,9.86798869 C139.398593,9.28253132 139.244584,8.77411544 139.036669,8.3427258 C138.828754,7.91133616 138.57079,7.57239224 138.262767,7.32588387 C137.954745,7.07937551 137.600525,6.95612317 137.200096,6.95612317 C136.784266,6.95612317 136.426196,7.07937551 136.125874,7.32588387 C135.825553,7.57239224 135.575288,7.90748452 135.375074,8.33117078 C135.174859,8.75485703 135.028551,9.25942127 134.936144,9.84487864 C134.843738,10.430336 134.797535,11.0620042 134.797535,11.7399022 C134.797535,12.4023935 134.843738,13.0225068 134.936144,13.6002608 C135.028551,14.1780147 135.174859,14.682579 135.375074,15.1139686 C135.575288,15.5453583 135.825553,15.8843022 136.125874,16.1308105 C136.426196,16.3773189 136.784266,16.5005712 137.200096,16.5005712 C137.615926,16.5005712 137.973997,16.3773189 138.274318,16.1308105 C138.57464,15.8843022 138.828754,15.5492099 139.036669,15.1255236 C139.244584,14.7018374 139.398593,14.2011248 139.4987,13.6233708 C139.598807,13.0456168 139.64886,12.4178002 139.64886,11.7399022 Z" id="Oracle-Consulting"></path>
                        <path d="M11.1431067,37.760499 C11.1431067,40.5044399 10.5675894,42.6317789 9.41653746,44.1425798 C8.26548551,45.6533806 6.57158696,46.4087697 4.33479097,46.4087697 L0,46.4087697 L0,29.0632295 L4.35928132,29.0632295 C6.57975032,29.0632295 8.26548551,29.826785 9.41653746,31.3539188 C10.5675894,32.8810526 11.1431067,35.016558 11.1431067,37.760499 Z M8.2042654,37.760499 C8.2042654,36.7315211 8.11038669,35.8332206 7.92262644,35.0655704 C7.7348662,34.2979203 7.46955678,33.6609435 7.12669025,33.1546211 C6.78382371,32.6482986 6.37565538,32.2685625 5.90217302,32.0154013 C5.42869066,31.7622401 4.91439857,31.6356613 4.35928132,31.6356613 L2.96333168,31.6356613 L2.96333168,43.8363379 L4.35928132,43.8363379 C4.91439857,43.8363379 5.42869066,43.7097592 5.90217302,43.456598 C6.37565538,43.2034367 6.78382371,42.8237006 7.12669025,42.3173782 C7.46955678,41.8110557 7.7348662,41.1781622 7.92262644,40.4186785 C8.11038669,39.6591948 8.2042654,38.7731439 8.2042654,37.760499 Z M16.8248667,30.2881971 C16.8248667,30.7781865 16.6697627,31.1865049 16.3595501,31.5131646 C16.0493375,31.8398242 15.6656593,32.0031516 15.2085039,32.0031516 C14.7350216,32.0031516 14.3472617,31.8398242 14.0452126,31.5131646 C13.7431635,31.1865049 13.5921412,30.7781865 13.5921412,30.2881971 C13.5921412,29.8145406 13.7431635,29.4062222 14.0452126,29.0632295 C14.3472617,28.7202369 14.7350216,28.5487432 15.2085039,28.5487432 C15.6819863,28.5487432 16.0697462,28.7202369 16.3717953,29.0632295 C16.6738444,29.4062222 16.8248667,29.8145406 16.8248667,30.2881971 Z M13.8370446,46.4087697 L13.8370446,33.9141009 L16.5799632,33.9141009 L16.5799632,46.4087697 L13.8370446,46.4087697 Z M28.6781934,46.0657788 C28.6781934,46.9967588 28.5883964,47.8419779 28.4087996,48.6014616 C28.2292029,49.3609452 27.9353217,50.0142547 27.5271472,50.5614096 C27.1189728,51.1085645 26.5965173,51.5332157 25.9597652,51.8353758 C25.323013,52.137536 24.5474932,52.2886138 23.6331824,52.2886138 C22.7678526,52.2886138 21.9433526,52.1212033 21.1596576,51.7863771 C20.3759627,51.451551 19.7310567,51.0064839 19.2249204,50.4511625 L20.7188314,48.4667151 C21.078025,48.8587067 21.4984383,49.1853615 21.9800842,49.4466892 C22.46173,49.7080169 22.9882672,49.8386788 23.5597114,49.8386788 C24.0168668,49.8386788 24.400545,49.7447655 24.7107576,49.5569362 C25.0209702,49.369107 25.2699529,49.1159495 25.4577131,48.7974564 C25.6454733,48.4789632 25.7801689,48.1033103 25.8618038,47.6704863 C25.9434387,47.2376622 25.9842555,46.768096 25.9842555,46.2617736 L25.9842555,44.7428139 L25.9352748,44.7428139 C25.7556781,45.2981353 25.4250617,45.7677014 24.9434159,46.1515265 C24.46177,46.5353516 23.8780893,46.7272613 23.1923562,46.7272613 C22.5229501,46.7272613 21.9351877,46.5639339 21.4290514,46.2372743 C20.9229151,45.9106146 20.5025017,45.453298 20.1677987,44.8653106 C19.8330956,44.2773233 19.5800313,43.5831819 19.408598,42.7828658 C19.2371647,41.9825497 19.1514494,41.1087483 19.1514494,40.1614353 C19.1514494,39.1977894 19.2412464,38.3076552 19.4208432,37.4910061 C19.6004399,36.674357 19.8616677,35.9720493 20.2045342,35.384062 C20.5474007,34.7960746 20.9678141,34.3346748 21.4657869,33.9998487 C21.9637598,33.6650225 22.5392771,33.497612 23.1923562,33.497612 C23.9923782,33.497612 24.6046306,33.7058544 25.0291321,34.1223454 C25.4536335,34.5388365 25.7638414,35.0574009 25.9597652,35.6780542 L26.0332362,35.6780542 L26.0332362,33.9141009 L28.6781934,33.9141009 L28.6781934,46.0657788 Z M26.0577265,40.136936 C26.0577265,39.5489486 26.012828,38.9936356 25.9230296,38.4709801 C25.8332313,37.9483247 25.7026174,37.4991744 25.5311841,37.1235159 C25.3597509,36.7478573 25.1434216,36.4497848 24.88219,36.2292896 C24.6209584,36.0087943 24.3189138,35.8985483 23.9760473,35.8985483 C23.6168537,35.8985483 23.3066458,36.0087943 23.0454142,36.2292896 C22.7841825,36.4497848 22.571935,36.7478573 22.4086652,37.1235159 C22.2453954,37.4991744 22.1229449,37.9483247 22.04131,38.4709801 C21.9596752,38.9936356 21.9188583,39.5489486 21.9188583,40.136936 C21.9188583,40.7249233 21.9596752,41.2802364 22.04131,41.8028918 C22.1229449,42.3255472 22.2453954,42.7787807 22.4086652,43.1626058 C22.571935,43.5464308 22.7841825,43.8485865 23.0454142,44.0690817 C23.3066458,44.289577 23.6168537,44.399823 23.9760473,44.399823 C24.3189138,44.399823 24.6209584,44.289577 24.88219,44.0690817 C25.1434216,43.8485865 25.3597509,43.5464308 25.5311841,43.1626058 C25.7026174,42.7787807 25.8332313,42.3255472 25.9230296,41.8028918 C26.012828,41.2802364 26.0577265,40.7249233 26.0577265,40.136936 Z M34.9722119,30.2881971 C34.9722119,30.7781865 34.817108,31.1865049 34.5068954,31.5131646 C34.1966828,31.8398242 33.8130046,32.0031516 33.3558492,32.0031516 C32.8823668,32.0031516 32.4946069,31.8398242 32.1925578,31.5131646 C31.8905087,31.1865049 31.7394865,30.7781865 31.7394865,30.2881971 C31.7394865,29.8145406 31.8905087,29.4062222 32.1925578,29.0632295 C32.4946069,28.7202369 32.8823668,28.5487432 33.3558492,28.5487432 C33.8293316,28.5487432 34.2170915,28.7202369 34.5191406,29.0632295 C34.8211897,29.4062222 34.9722119,29.8145406 34.9722119,30.2881971 Z M31.9843899,46.4087697 L31.9843899,33.9141009 L34.7273085,33.9141009 L34.7273085,46.4087697 L31.9843899,46.4087697 Z M40.8498946,36.0455444 L40.8498946,42.4643743 C40.8498946,43.1503595 40.9519367,43.648508 41.1560239,43.9588347 C41.3601111,44.2691613 41.6744008,44.4243223 42.0989022,44.4243223 C42.245845,44.4243223 42.3968673,44.4079896 42.5519736,44.3753236 C42.7070798,44.3426576 42.8417754,44.2936594 42.9560642,44.2283275 L43.0050449,46.3842704 C42.8091212,46.4822682 42.5478935,46.5639319 42.2213539,46.6292639 C41.8948143,46.6945958 41.5682797,46.7272613 41.2417401,46.7272613 C40.1804866,46.7272613 39.4172118,46.4128561 38.9518929,45.7840363 C38.486574,45.1552165 38.2539181,44.2528327 38.2539181,43.076858 L38.2539181,36.0455444 L36.686536,36.0455444 L36.686536,33.9141009 L38.2539181,33.9141009 L38.2539181,30.7291854 L40.8498946,30.7291854 L40.8498946,33.9141009 L43.0295353,33.9141009 L43.0295353,36.0455444 L40.8498946,36.0455444 Z M50.0827545,40.5534249 L49.2745731,40.5534249 C48.9317066,40.5534249 48.6010902,40.5820072 48.2827142,40.6391727 C47.9643381,40.6963381 47.6827019,40.8065841 47.4377973,40.9699139 C47.1928926,41.1332437 46.9969718,41.3578188 46.850029,41.643646 C46.7030862,41.9294732 46.6296159,42.2928766 46.6296159,42.7338671 C46.6296159,43.3871864 46.7724748,43.8690021 47.0581969,44.1793288 C47.3439191,44.4896555 47.6745354,44.6448165 48.0500559,44.6448165 C48.4255764,44.6448165 48.7439477,44.5386537 49.0051793,44.3263249 C49.266411,44.1139961 49.4745768,43.844506 49.6296831,43.5178463 C49.7847894,43.1911867 49.8990765,42.8277833 49.9725479,42.4276252 C50.0460193,42.0274672 50.0827545,41.6395647 50.0827545,41.2639061 L50.0827545,40.5534249 Z M50.1807159,44.5468191 C50.0011191,45.2328043 49.6745844,45.7677014 49.2011021,46.1515265 C48.7276197,46.5353516 48.0990405,46.7272613 47.3153456,46.7272613 C46.956152,46.7272613 46.5888005,46.6619303 46.2132801,46.5312665 C45.8377596,46.4006026 45.4989798,46.1841938 45.1969308,45.8820337 C44.8948817,45.5798735 44.645899,45.1878878 44.4499752,44.7060648 C44.2540515,44.2242419 44.1560911,43.6403465 44.1560911,42.9543613 C44.1560911,42.0723803 44.3152768,41.3496566 44.6336528,40.7861688 C44.9520289,40.2226809 45.3601972,39.7776138 45.8581701,39.4509542 C46.3561429,39.1242945 46.9112518,38.8997194 47.5235135,38.777222 C48.1357752,38.6547247 48.7357826,38.5934769 49.3235538,38.5934769 L50.0092834,38.5934769 L50.0092834,38.2014873 C50.0092834,37.3685052 49.8419344,36.7682771 49.5072314,36.400785 C49.1725283,36.0332929 48.7276249,35.8495496 48.1725076,35.8495496 C47.6990253,35.8495496 47.2704485,35.9597956 46.8867645,36.1802909 C46.5030805,36.4007861 46.1724642,36.6906922 45.8949056,37.0500178 L44.572427,35.3105639 C45.0295824,34.7389095 45.6091814,34.2938425 46.3112414,33.9753493 C47.0133015,33.6568562 47.7071876,33.497612 48.3929207,33.497612 C49.1602887,33.497612 49.8092763,33.6201075 50.3399031,33.8651022 C50.8705299,34.110097 51.2991066,34.465334 51.6256462,34.930824 C51.9521857,35.396314 52.1848417,35.972043 52.323621,36.6580282 C52.4624003,37.3440134 52.5317889,38.1198184 52.5317889,38.9854665 L52.5317889,46.4087697 L50.2296965,46.4087697 L50.2296965,44.5468191 L50.1807159,44.5468191 Z M55.666553,46.4087697 L55.666553,27.8872607 L58.4584523,27.8872607 L58.4584523,46.4087697 L55.666553,46.4087697 Z M66.6627177,46.4087697 L66.6627177,29.0632295 L74.4261569,29.0632295 L74.4261569,31.6601607 L69.4791073,31.6601607 L69.4791073,36.2660386 L74.0588017,36.2660386 L74.0588017,38.6669749 L69.4791073,38.6669749 L69.4791073,43.7873392 L74.6710604,43.7873392 L74.6710604,46.4087697 L66.6627177,46.4087697 Z M82.679403,46.4087697 L80.7446658,41.8518905 L78.7609479,46.4087697 L75.7241452,46.4087697 L78.9568706,39.8674431 L76.0180293,33.9141009 L79.0303417,33.9141009 L80.7691561,37.9809931 L82.4834802,33.9141009 L85.4713023,33.9141009 L82.5569513,39.8674431 L85.7406961,46.4087697 L82.679403,46.4087697 Z M97.1042159,40.136936 C97.1042159,41.1005819 97.0185006,41.9866329 96.8470673,42.7951155 C96.675634,43.6035981 96.418488,44.309989 96.0756214,44.9143093 C95.7327549,45.5186297 95.3082598,45.9881958 94.8021235,46.323022 C94.2959872,46.6578481 93.7163882,46.8252587 93.0633091,46.8252587 C92.344922,46.8252587 91.753078,46.6251826 91.2877591,46.2250246 C90.8224402,45.8248665 90.4999872,45.3389676 90.3203905,44.7673132 L90.2714098,44.7673132 L90.2714098,52.2886138 L87.5529816,52.2886138 L87.5529816,33.9141009 L90.2224291,33.9141009 L90.2224291,35.6780542 L90.2714098,35.6780542 C90.4836605,35.0574009 90.8020318,34.5388365 91.2265332,34.1223454 C91.6510347,33.7058544 92.2632871,33.497612 93.0633091,33.497612 C93.7163882,33.497612 94.2919055,33.6650225 94.7898783,33.9998487 C95.2878512,34.3346748 95.7082646,34.8001578 96.0511311,35.3963116 C96.3939976,35.9924655 96.6552254,36.6947732 96.8348221,37.5032558 C97.0144189,38.3117384 97.1042159,39.189623 97.1042159,40.136936 Z M94.336807,40.136936 C94.336807,39.5489486 94.2959901,38.9936356 94.2143553,38.4709801 C94.1327204,37.9483247 94.0102699,37.4991744 93.8470001,37.1235159 C93.6837303,36.7478573 93.4714828,36.4497848 93.2102511,36.2292896 C92.9490195,36.0087943 92.6388116,35.8985483 92.279618,35.8985483 C91.9367515,35.8985483 91.6347069,36.0087943 91.3734753,36.2292896 C91.1122436,36.4497848 90.8959144,36.7478573 90.7244812,37.1235159 C90.5530479,37.4991744 90.422434,37.9483247 90.3326357,38.4709801 C90.2428373,38.9936356 90.1979388,39.5489486 90.1979388,40.136936 C90.1979388,40.7249233 90.2428373,41.2802364 90.3326357,41.8028918 C90.422434,42.3255472 90.5530479,42.7787807 90.7244812,43.1626058 C90.8959144,43.5464308 91.1122436,43.8485865 91.3734753,44.0690817 C91.6347069,44.289577 91.9367515,44.399823 92.279618,44.399823 C92.6388116,44.399823 92.9490195,44.289577 93.2102511,44.0690817 C93.4714828,43.8485865 93.6837303,43.5464308 93.8470001,43.1626058 C94.0102699,42.7787807 94.1327204,42.3255472 94.2143553,41.8028918 C94.2959901,41.2802364 94.336807,40.7249233 94.336807,40.136936 Z M101.68391,40.8719165 C101.68391,41.3619059 101.732891,41.8233058 101.830852,42.2561298 C101.928814,42.6889538 102.071673,43.0646068 102.259433,43.3830999 C102.447194,43.7015931 102.675768,43.9547505 102.945163,44.1425798 C103.214558,44.3304091 103.528848,44.4243223 103.888041,44.4243223 C104.394178,44.4243223 104.798264,44.2609949 105.100313,43.9343353 C105.402362,43.6076757 105.643182,43.2320227 105.822779,42.8073652 L107.855477,43.983334 C107.496284,44.848982 106.986073,45.5390402 106.324831,46.0535291 C105.663588,46.5680181 104.81868,46.8252587 103.79008,46.8252587 C102.336979,46.8252587 101.169617,46.2536129 100.287961,45.1103041 C99.4063039,43.9669954 98.9654821,42.3255553 98.9654821,40.1859347 C98.9654821,39.1896228 99.0797692,38.2790727 99.3083469,37.4542571 C99.5369246,36.6294415 99.8634593,35.9230506 100.287961,35.3350633 C100.712462,34.7470759 101.214509,34.2938425 101.794117,33.9753493 C102.373725,33.6568562 103.022712,33.497612 103.741099,33.497612 C104.541121,33.497612 105.222762,33.6609393 105.786043,33.987599 C106.349324,34.3142586 106.806472,34.7593257 107.157502,35.3228136 C107.508532,35.8863015 107.765678,36.5518605 107.928948,37.3195107 C108.092218,38.0871608 108.173852,38.9201304 108.173852,39.8184444 L108.173852,40.8719165 L101.68391,40.8719165 Z M105.528894,38.8629697 C105.528894,37.9319898 105.381954,37.1766007 105.088068,36.5967798 C104.794183,36.016959 104.337034,35.7270529 103.716609,35.7270529 C103.357415,35.7270529 103.051289,35.8332157 102.798221,36.0455444 C102.545153,36.2578732 102.341069,36.5232802 102.185962,36.8417733 C102.030856,37.1602665 101.912487,37.503254 101.830852,37.870746 C101.749217,38.2382381 101.708401,38.5689761 101.708401,38.8629697 L105.528894,38.8629697 Z M113.488256,36.3150373 C113.700507,35.3840573 114.035205,34.6817496 114.49236,34.2080931 C114.949516,33.7344367 115.488298,33.497612 116.108723,33.497612 L116.316891,33.497612 C116.374036,33.497612 116.443424,33.5139447 116.525059,33.5466107 L116.378117,36.3885353 C116.19852,36.3395364 116.002599,36.3150373 115.790349,36.3150373 C115.431155,36.3150373 115.112784,36.4252833 114.835225,36.6457785 C114.557667,36.8662738 114.320929,37.1561799 114.125005,37.5155055 C113.929082,37.8748311 113.782141,38.2831495 113.684179,38.740473 C113.586217,39.1977965 113.537237,39.6632795 113.537237,40.136936 L113.537237,46.4087697 L110.720847,46.4087697 L110.720847,33.9141009 L113.439276,33.9141009 L113.439276,36.3150373 L113.488256,36.3150373 Z M121.178225,30.2881971 C121.178225,30.7781865 121.023121,31.1865049 120.712908,31.5131646 C120.402695,31.8398242 120.019017,32.0031516 119.561862,32.0031516 C119.088379,32.0031516 118.70062,31.8398242 118.39857,31.5131646 C118.096521,31.1865049 117.945499,30.7781865 117.945499,30.2881971 C117.945499,29.8145406 118.096521,29.4062222 118.39857,29.0632295 C118.70062,28.7202369 119.088379,28.5487432 119.561862,28.5487432 C120.035344,28.5487432 120.423104,28.7202369 120.725153,29.0632295 C121.027202,29.4062222 121.178225,29.8145406 121.178225,30.2881971 Z M118.190403,46.4087697 L118.190403,33.9141009 L120.933321,33.9141009 L120.933321,46.4087697 L118.190403,46.4087697 Z M126.247726,40.8719165 C126.247726,41.3619059 126.296706,41.8233058 126.394668,42.2561298 C126.49263,42.6889538 126.635489,43.0646068 126.823249,43.3830999 C127.011009,43.7015931 127.239583,43.9547505 127.508979,44.1425798 C127.778374,44.3304091 128.092663,44.4243223 128.451857,44.4243223 C128.957993,44.4243223 129.36208,44.2609949 129.664129,43.9343353 C129.966178,43.6076757 130.206997,43.2320227 130.386594,42.8073652 L132.419293,43.983334 C132.060099,44.848982 131.549889,45.5390402 130.888646,46.0535291 C130.227404,46.5680181 129.382495,46.8252587 128.353895,46.8252587 C126.900794,46.8252587 125.733433,46.2536129 124.851776,45.1103041 C123.970119,43.9669954 123.529298,42.3255553 123.529298,40.1859347 C123.529298,39.1896228 123.643585,38.2790727 123.872162,37.4542571 C124.10074,36.6294415 124.427275,35.9230506 124.851776,35.3350633 C125.276278,34.7470759 125.778325,34.2938425 126.357932,33.9753493 C126.93754,33.6568562 127.586528,33.497612 128.304915,33.497612 C129.104937,33.497612 129.786578,33.6609393 130.349859,33.987599 C130.913139,34.3142586 131.370288,34.7593257 131.721318,35.3228136 C132.072348,35.8863015 132.329494,36.5518605 132.492764,37.3195107 C132.656033,38.0871608 132.737667,38.9201304 132.737667,39.8184444 L132.737667,40.8719165 L126.247726,40.8719165 Z M130.09271,38.8629697 C130.09271,37.9319898 129.945769,37.1766007 129.651884,36.5967798 C129.357998,36.016959 128.90085,35.7270529 128.280424,35.7270529 C127.921231,35.7270529 127.615105,35.8332157 127.362037,36.0455444 C127.108968,36.2578732 126.904884,36.5232802 126.749778,36.8417733 C126.594672,37.1602665 126.476303,37.503254 126.394668,37.870746 C126.313033,38.2382381 126.272216,38.5689761 126.272216,38.8629697 L130.09271,38.8629697 Z M138.003091,33.9141009 L138.003091,35.8985483 L138.052072,35.8985483 C138.28065,35.2288961 138.660246,34.6613335 139.190873,34.1958435 C139.7215,33.7303535 140.378651,33.497612 141.162346,33.497612 C141.848079,33.497612 142.399106,33.6405234 142.815444,33.9263506 C143.231782,34.2121778 143.554235,34.5919139 143.782813,35.0655704 C144.01139,35.5392269 144.166494,36.0822904 144.248129,36.6947772 C144.329764,37.307264 144.370581,37.9319912 144.370581,38.5689775 L144.370581,46.4087697 L141.603172,46.4087697 L141.603172,38.5689775 C141.603172,38.2586509 141.586845,37.9442457 141.554191,37.6257525 C141.521537,37.3072594 141.452149,37.0173533 141.346023,36.7560256 C141.239898,36.4946979 141.084794,36.2864555 140.880707,36.1312922 C140.676619,35.9761288 140.41131,35.8985483 140.08477,35.8985483 C139.464345,35.8985483 138.970462,36.2088703 138.603105,36.8295237 C138.235748,37.450177 138.052072,38.2341483 138.052072,39.1814613 L138.052072,46.4087697 L135.284663,46.4087697 L135.284663,33.9141009 L138.003091,33.9141009 Z M154.460603,45.6737892 C154.117736,46.0331148 153.701404,46.3148545 153.211595,46.5190168 C152.721786,46.7231791 152.166677,46.8252587 151.546252,46.8252587 C150.778884,46.8252587 150.101324,46.6619313 149.513553,46.3352717 C148.925782,46.008612 148.43598,45.5472122 148.044132,44.9510583 C147.652285,44.3549045 147.358404,43.6485136 147.16248,42.8318645 C146.966556,42.0152154 146.868596,41.1169149 146.868596,40.136936 C146.868596,39.1569571 146.970638,38.2586565 147.174725,37.4420074 C147.378812,36.6253583 147.680857,35.9230506 148.080868,35.3350633 C148.480879,34.7470759 148.970681,34.2938425 149.550289,33.9753493 C150.129896,33.6568562 150.803374,33.497612 151.570742,33.497612 C152.240148,33.497612 152.815665,33.6119411 153.297311,33.8406029 C153.778957,34.0692646 154.158554,34.3224221 154.436112,34.6000828 L153.187105,36.6825275 C153.007508,36.4865318 152.799342,36.3232044 152.562601,36.1925405 C152.32586,36.0618767 152.03606,35.9965457 151.693194,35.9965457 C151.007461,35.9965457 150.489087,36.3762819 150.138057,37.1357655 C149.787027,37.8952492 149.611514,38.8956293 149.611514,40.136936 C149.611514,41.3782426 149.791109,42.3745396 150.150302,43.1258567 C150.509496,43.8771739 151.056441,44.2528269 151.791155,44.2528269 C152.134022,44.2528269 152.427903,44.1874959 152.672808,44.0568321 C152.917712,43.9261682 153.12996,43.7465081 153.309557,43.5178463 L154.460603,45.6737892 Z M158.183135,40.8719165 C158.183135,41.3619059 158.232115,41.8233058 158.330077,42.2561298 C158.428039,42.6889538 158.570898,43.0646068 158.758658,43.3830999 C158.946418,43.7015931 159.174993,43.9547505 159.444388,44.1425798 C159.713783,44.3304091 160.028073,44.4243223 160.387266,44.4243223 C160.893402,44.4243223 161.297489,44.2609949 161.599538,43.9343353 C161.901587,43.6076757 162.142407,43.2320227 162.322003,42.8073652 L164.354702,43.983334 C163.995508,44.848982 163.485298,45.5390402 162.824055,46.0535291 C162.162813,46.5680181 161.317904,46.8252587 160.289305,46.8252587 C158.836204,46.8252587 157.668842,46.2536129 156.787185,45.1103041 C155.905529,43.9669954 155.464707,42.3255553 155.464707,40.1859347 C155.464707,39.1896228 155.578994,38.2790727 155.807572,37.4542571 C156.036149,36.6294415 156.362684,35.9230506 156.787185,35.3350633 C157.211687,34.7470759 157.713734,34.2938425 158.293342,33.9753493 C158.872949,33.6568562 159.521937,33.497612 160.240324,33.497612 C161.040346,33.497612 161.721987,33.6609393 162.285268,33.987599 C162.848549,34.3142586 163.305697,34.7593257 163.656727,35.3228136 C164.007757,35.8863015 164.264903,36.5518605 164.428173,37.3195107 C164.591443,38.0871608 164.673076,38.9201304 164.673076,39.8184444 L164.673076,40.8719165 L158.183135,40.8719165 Z M162.028119,38.8629697 C162.028119,37.9319898 161.881179,37.1766007 161.587293,36.5967798 C161.293407,36.016959 160.836259,35.7270529 160.215834,35.7270529 C159.85664,35.7270529 159.550514,35.8332157 159.297446,36.0455444 C159.044378,36.2578732 158.840293,36.5232802 158.685187,36.8417733 C158.530081,37.1602665 158.411712,37.503254 158.330077,37.870746 C158.248442,38.2382381 158.207625,38.5689761 158.207625,38.8629697 L162.028119,38.8629697 Z" id="Digital-Experience"></path>
                    </g>
                </g>
            </g>
        </g>
    </g>
</svg>