<?xml version="1.0" encoding="UTF-8"?>
<svg width="14px" height="16px" viewBox="0 0 14 16" version="1.1" xmlns="http://www.w3.org/2000/svg" xmlns:xlink="http://www.w3.org/1999/xlink">
    <!-- Generator: Sketch 49.3 (51167) - http://www.bohemiancoding.com/sketch -->
    <title>Shape</title>
    <desc>Created with Sketch.</desc>
    <defs></defs>
    <g id="For-Sebastian" stroke="none" stroke-width="1" fill="none" fill-rule="evenodd">
        <g id="Desktop---Composite" transform="translate(-140.000000, -711.000000)" fill="#FFFFFF" fill-rule="nonzero">
            <g id="Group-29" transform="translate(140.000000, 296.000000)">
                <g id="Group-9" transform="translate(0.000000, 414.000000)">
                    <path d="M8.46776755,2.21055009 C8.1953001,1.92981664 7.7418228,1.92981664 7.45982852,2.21055009 C7.18736107,2.4817993 7.18736107,2.93324903 7.45982852,3.20386596 L12.5706574,8.29184356 L-0.294379168,8.29184356 C-0.687519848,8.29247584 -1,8.60355885 -1,8.99494174 C-1,9.38632463 -0.687519848,9.70752416 -0.294379168,9.70752416 L12.5706574,9.70752416 L7.45982852,14.7860175 C7.18736107,15.066751 7.18736107,15.518833 7.45982852,15.7894499 C7.7418228,16.0701834 8.19593522,16.0701834 8.46776755,15.7894499 L14.7885043,9.49697408 C15.0704986,9.22572487 15.0704986,8.77427513 14.7885043,8.50365821 L8.46776755,2.21055009 Z" id="Shape" transform="translate(7.000000, 9.000000) rotate(90.000000) translate(-7.000000, -9.000000) "></path>
                </g>
            </g>
        </g>
    </g>
</svg>