<?xml version="1.0" encoding="UTF-8"?>
<svg width="77px" height="72px" viewBox="0 0 77 72" version="1.1" xmlns="http://www.w3.org/2000/svg" xmlns:xlink="http://www.w3.org/1999/xlink">
    <!-- Generator: Sketch 49.3 (51167) - http://www.bohemiancoding.com/sketch -->
    <title>Page 1</title>
    <desc>Created with Sketch.</desc>
    <defs>
        <path d="M-7.57532979e-12,51.1786264 L-7.57532979e-12,4.35837316 C0.849140392,1.94081085 3.19118567,0.19951 5.93880417,0.19951 L70.2330031,0.19951 C73.6944788,0.19951 76.5122346,2.96332773 76.5122346,6.3609632 L76.5122346,17.5571289 C75.0116231,16.5617089 73.2472125,15.9561667 71.3641479,15.7379844 L71.3641479,6.3609632 C71.3641479,5.74944825 70.8566883,5.25118928 70.233166,5.25118928 L5.93880417,5.25118928 C5.31560023,5.25118928 4.80781707,5.74944825 4.80781707,6.3609632 L4.80781707,49.1761591 C4.80781707,49.7878277 5.31544031,50.2862404 5.93880417,50.2862404 L32.7581766,50.2862404 L32.7583395,50.2862404 L32.7583395,64.5715348 C32.7583395,66.9593966 33.5254703,69.1644951 34.8058186,71.0000005 L22.9285896,71 C21.3644296,70.5160563 20.2295881,69.0812718 20.2295881,67.3859309 C20.2295881,65.2930017 21.9591265,63.5971667 24.0907975,63.5971667 L27.4891999,63.5971667 L27.4891999,55.337766 L5.93880417,55.337766 C3.19118567,55.337766 0.849140392,53.5962668 -2.91790481e-11,51.1786264 Z" id="path-1"></path>
        <path d="M16.5048515,46.3902 C16.5048515,47.5897928 16.9546392,48.9677536 17.6591411,49.9566325 L6.61138302,49.9566325 C3.04621642,49.9566325 0.145779057,47.1217123 0.145779057,43.6356775 L0.145779057,6.47955797 C0.145779057,2.99352174 3.04637094,0.158449275 6.61138302,0.158449275 L32.0496481,0.158449275 C35.6148147,0.158449275 38.5152226,2.99352174 38.5152226,6.47955797 L38.5152226,18.0296449 C37.5711283,17.490029 36.4868547,17.1592609 35.3152285,17.1592609 L33.3986728,17.1592609 L33.3986728,6.47955797 C33.3986728,5.75162319 32.7942464,5.15944928 32.0498026,5.15944928 L6.61138302,5.15944928 C5.8669466,5.15944928 5.26235094,5.75162319 5.26235094,6.47955797 L5.26235094,40.9875217 L16.5048515,40.9875217 L16.5048515,46.3902 Z" id="path-3"></path>
        <path d="M16.2907333,0.756784762 C18.0686667,0.756784762 19.5147407,2.23422476 19.5147407,4.04930286 L19.5147407,28.2045531 C19.5147407,30.0196343 18.0688148,31.4960946 16.2907333,31.4960946 L3.79888148,31.4960946 C2.02045926,31.4960946 0.574533333,30.0196343 0.574533333,28.2045531 L0.574533333,4.04947048 C0.574533333,2.23438476 2.02045926,0.756784762 3.79888148,0.756784762 L16.2907333,0.756784762 Z M4.43743704,4.70038857 L4.43743704,25.5806072 L15.6516889,25.5806072 L15.6516889,4.70038857 L4.43743704,4.70038857 Z M10.0460889,29.8965143 C10.3979556,29.8965143 10.7147556,29.750176 10.956437,29.524211 C11.2279037,29.269795 11.4040815,28.9128617 11.4040815,28.5058949 C11.4040815,27.738397 10.7954741,27.1169105 10.0460889,27.1169105 C9.29157037,27.1169105 8.6828,27.738397 8.6828,28.5058949 C8.6828,28.9128617 8.85881481,29.2699589 9.13317037,29.524211 C9.37453333,29.750013 9.69133333,29.8965143 10.0460889,29.8965143 Z" id="path-5"></path>
    </defs>
    <g id="For-Sebastian" stroke="none" stroke-width="1" fill="none" fill-rule="evenodd" opacity="0.800000012">
        <g id="Desktop---Composite" transform="translate(-537.000000, -1671.000000)">
            <g id="Group-25" transform="translate(140.000000, 1226.000000)">
                <g id="Group-22" transform="translate(336.000000, 388.000000)">
                    <g id="Page-1" transform="translate(61.000000, 57.000000)">
                        <g id="Group-3">
                            <mask id="mask-2" fill="white">
                                <use xlink:href="#path-1"></use>
                            </mask>
                            <g id="Clip-2"></g>
                            <polygon id="Fill-1" fill="#3F4D5A" mask="url(#mask-2)" points="-1.14087346 71.9600905 77.3126496 71.9600905 77.3126496 -0.585886876 -1.14087346 -0.585886876"></polygon>
                        </g>
                        <g id="Group-6" transform="translate(38.000000, 21.000000)">
                            <mask id="mask-4" fill="white">
                                <use xlink:href="#path-3"></use>
                            </mask>
                            <g id="Clip-5"></g>
                            <polygon id="Fill-4" fill="#3F4D5A" mask="url(#mask-4)" points="-0.649732642 50.7341754 39.3107711 50.7341754 39.3107711 -0.619092754 -0.649732642 -0.619092754"></polygon>
                        </g>
                        <g id="Group-9" transform="translate(57.000000, 40.000000)">
                            <mask id="mask-6" fill="white">
                                <use xlink:href="#path-5"></use>
                            </mask>
                            <g id="Clip-8"></g>
                            <polygon id="Fill-7" fill="#3F4D5A" mask="url(#mask-6)" points="-0.226266667 32.3136251 20.3155556 32.3136251 20.3155556 -0.0607520762 -0.226266667 -0.0607520762"></polygon>
                        </g>
                    </g>
                </g>
            </g>
        </g>
    </g>
</svg>